<svg width="323" height="544" viewBox="0 0 323 544" fill="none" xmlns="http://www.w3.org/2000/svg">
<mask id="path-1-outside-1_319_2152" maskUnits="userSpaceOnUse" x="-0.792969" y="-0.238281" width="324" height="544" fill="black">
<rect fill="white" x="-0.792969" y="-0.238281" width="324" height="544"/>
<path d="M196.604 378.435H110.014C110.255 356.455 112.067 337.615 115.448 321.915C119.071 306.215 124.989 292.085 133.201 279.525C141.413 266.724 152.524 253.681 166.533 240.396C177.644 230.01 187.547 220.228 196.242 211.05C205.179 201.63 212.184 191.848 217.256 181.703C222.328 171.317 224.864 159.603 224.864 146.56C224.864 131.826 222.449 119.507 217.618 109.604C213.029 99.7015 206.145 92.2139 196.967 87.1416C188.03 81.8278 176.799 79.1709 163.272 79.1709C152.162 79.1709 141.655 81.4655 131.752 86.0547C121.849 90.6439 113.878 97.7692 107.84 107.431C101.801 116.851 98.5407 129.169 98.0576 144.386H2.04688C2.77148 112.744 10.2591 86.417 24.5098 65.4033C38.7604 44.1481 57.9626 28.3275 82.1162 17.9414C106.27 7.3138 133.322 2 163.272 2C196.363 2 224.623 7.55534 248.052 18.666C271.722 29.5352 289.717 45.4766 302.035 66.4902C314.595 87.5039 320.875 112.865 320.875 142.574C320.875 163.829 316.769 182.911 308.557 199.818C300.344 216.484 289.475 232.063 275.949 246.556C262.423 261.048 247.81 275.661 232.11 290.395C218.343 302.713 209.044 315.877 204.213 329.886C199.382 343.895 196.846 360.078 196.604 378.435ZM100.956 491.111C100.956 476.619 105.787 464.542 115.448 454.881C125.351 445.219 138.636 440.389 155.302 440.389C171.968 440.389 185.132 445.219 194.793 454.881C204.696 464.542 209.647 476.619 209.647 491.111C209.647 505.12 204.696 516.956 194.793 526.617C185.132 536.279 171.968 541.109 155.302 541.109C138.636 541.109 125.351 536.279 115.448 526.617C105.787 516.956 100.956 505.12 100.956 491.111Z"/>
</mask>
<path d="M196.604 378.435V380.435H198.578L198.604 378.461L196.604 378.435ZM110.014 378.435L108.014 378.413L107.992 380.435H110.014V378.435ZM115.448 321.915L113.499 321.465L113.496 321.48L113.493 321.494L115.448 321.915ZM133.201 279.525L134.875 280.62L134.88 280.613L134.885 280.605L133.201 279.525ZM166.533 240.396L165.167 238.935L165.162 238.94L165.157 238.945L166.533 240.396ZM196.242 211.05L194.791 209.673L194.79 209.674L196.242 211.05ZM217.256 181.703L219.045 182.598L219.049 182.589L219.053 182.581L217.256 181.703ZM217.618 109.604L215.804 110.445L215.812 110.463L215.821 110.481L217.618 109.604ZM196.967 87.1416L195.945 88.8607L195.972 88.8768L195.999 88.8921L196.967 87.1416ZM107.84 107.431L109.524 108.51L109.53 108.5L109.536 108.491L107.84 107.431ZM98.0576 144.386V146.386H99.9951L100.057 144.449L98.0576 144.386ZM2.04688 144.386L0.0473995 144.34L0.000549316 146.386H2.04688V144.386ZM24.5098 65.4033L26.1651 66.5259L26.171 66.5171L24.5098 65.4033ZM82.1162 17.9414L82.9063 19.7787L82.914 19.7755L82.9217 19.772L82.1162 17.9414ZM248.052 18.666L247.195 20.4731L247.206 20.4784L247.217 20.4836L248.052 18.666ZM302.035 66.4902L300.31 67.5017L300.314 67.509L300.318 67.5163L302.035 66.4902ZM308.557 199.818L310.351 200.702L310.356 200.692L308.557 199.818ZM232.11 290.395L233.444 291.885L233.462 291.869L233.479 291.853L232.11 290.395ZM115.448 454.881L114.052 453.449L114.043 453.458L114.034 453.467L115.448 454.881ZM194.793 454.881L193.379 456.295L193.387 456.304L193.396 456.312L194.793 454.881ZM194.793 526.617L193.396 525.186L193.387 525.194L193.379 525.203L194.793 526.617ZM115.448 526.617L114.034 528.031L114.043 528.04L114.052 528.049L115.448 526.617ZM196.604 378.435V376.435H110.014V378.435V380.435H196.604V378.435ZM110.014 378.435L112.014 378.457C112.254 356.566 114.058 337.867 117.403 322.336L115.448 321.915L113.493 321.494C110.075 337.363 108.256 356.344 108.014 378.413L110.014 378.435ZM115.448 321.915L117.397 322.365C120.971 306.877 126.801 292.969 134.875 280.62L133.201 279.525L131.527 278.431C123.177 291.202 117.172 305.553 113.499 321.465L115.448 321.915ZM133.201 279.525L134.885 280.605C142.99 267.97 153.988 255.049 167.909 241.848L166.533 240.396L165.157 238.945C151.061 252.312 139.837 265.478 131.518 278.445L133.201 279.525ZM166.533 240.396L167.899 241.858C179.034 231.449 188.966 221.638 197.694 212.425L196.242 211.05L194.79 209.674C186.128 218.818 176.254 228.572 165.167 238.935L166.533 240.396ZM196.242 211.05L197.693 212.426C206.746 202.884 213.872 192.942 219.045 182.598L217.256 181.703L215.467 180.809C210.495 190.753 203.612 200.376 194.791 209.673L196.242 211.05ZM217.256 181.703L219.053 182.581C224.275 171.888 226.864 159.867 226.864 146.56H224.864H222.864C222.864 159.338 220.381 170.746 215.459 180.825L217.256 181.703ZM224.864 146.56H226.864C226.864 131.62 224.417 118.98 219.416 108.728L217.618 109.604L215.821 110.481C220.481 120.035 222.864 132.032 222.864 146.56H224.864ZM217.618 109.604L219.433 108.764C214.673 98.4919 207.5 90.6777 197.934 85.3911L196.967 87.1416L195.999 88.8921C204.79 93.7501 211.385 100.911 215.804 110.445L217.618 109.604ZM196.967 87.1416L197.989 85.4225C188.663 79.8774 177.052 77.1709 163.272 77.1709V79.1709V81.1709C176.545 81.1709 187.397 83.7782 195.945 88.8607L196.967 87.1416ZM163.272 79.1709V77.1709C151.877 77.1709 141.082 79.5265 130.911 84.2401L131.752 86.0547L132.593 87.8693C142.228 83.4045 152.447 81.1709 163.272 81.1709V79.1709ZM131.752 86.0547L130.911 84.2401C120.64 88.9999 112.378 96.3952 106.144 106.371L107.84 107.431L109.536 108.491C115.378 99.1432 123.058 92.2879 132.593 87.8693L131.752 86.0547ZM107.84 107.431L106.156 106.351C99.8648 116.166 96.5492 128.87 96.0586 144.322L98.0576 144.386L100.057 144.449C100.532 129.468 103.738 117.535 109.524 108.51L107.84 107.431ZM98.0576 144.386V142.386H2.04688V144.386V146.386H98.0576V144.386ZM2.04688 144.386L4.04635 144.432C4.76432 113.08 12.1779 87.1509 26.165 66.5258L24.5098 65.4033L22.8545 64.2808C8.3403 85.6831 0.778646 112.409 0.0473995 144.34L2.04688 144.386ZM24.5098 65.4033L26.171 66.5171C40.2009 45.5911 59.0964 30.017 82.9063 19.7787L82.1162 17.9414L81.3262 16.1041C56.8288 26.6379 37.32 42.7051 22.8486 64.2896L24.5098 65.4033ZM82.1162 17.9414L82.9217 19.772C106.789 9.27026 133.562 4 163.272 4V2V0C133.082 0 105.75 5.35736 81.3107 16.1108L82.1162 17.9414ZM163.272 2V4C196.146 4 224.097 9.51947 247.195 20.4731L248.052 18.666L248.909 16.8589C225.149 5.59119 196.58 0 163.272 0V2ZM248.052 18.666L247.217 20.4836C270.542 31.1942 288.213 46.8667 300.31 67.5017L302.035 66.4902L303.761 65.4788C291.22 44.0865 272.902 27.8762 248.886 16.8484L248.052 18.666ZM302.035 66.4902L300.318 67.5163C312.657 88.1597 318.875 113.149 318.875 142.574H320.875H322.875C322.875 112.581 316.533 86.8481 303.752 65.4641L302.035 66.4902ZM320.875 142.574H318.875C318.875 163.567 314.821 182.343 306.758 198.945L308.557 199.818L310.356 200.692C318.717 183.479 322.875 164.092 322.875 142.574H320.875ZM308.557 199.818L306.763 198.934C298.643 215.413 287.889 230.832 274.487 245.191L275.949 246.556L277.411 247.92C291.062 233.295 302.046 217.555 310.351 200.702L308.557 199.818ZM275.949 246.556L274.487 245.191C260.994 259.648 246.412 274.23 230.742 288.936L232.11 290.395L233.479 291.853C249.208 277.092 263.853 262.447 277.411 247.92L275.949 246.556ZM232.11 290.395L230.777 288.904C216.817 301.395 207.288 314.832 202.322 329.234L204.213 329.886L206.104 330.538C210.799 316.921 219.869 304.031 233.444 291.885L232.11 290.395ZM204.213 329.886L202.322 329.234C197.408 343.486 194.848 359.887 194.605 378.408L196.604 378.435L198.604 378.461C198.844 360.268 201.357 344.304 206.104 330.538L204.213 329.886ZM100.956 491.111H102.956C102.956 477.114 107.601 465.557 116.862 456.295L115.448 454.881L114.034 453.467C103.973 463.528 98.9561 476.124 98.9561 491.111H100.956ZM115.448 454.881L116.845 456.312C126.3 447.088 139.044 442.389 155.302 442.389V440.389V438.389C138.228 438.389 124.402 443.351 114.052 453.449L115.448 454.881ZM155.302 440.389V442.389C171.561 442.389 184.172 447.088 193.379 456.295L194.793 454.881L196.207 453.467C186.091 443.351 172.374 438.389 155.302 438.389V440.389ZM194.793 454.881L193.396 456.312C202.894 465.578 207.647 477.13 207.647 491.111H209.647H211.647C211.647 476.109 206.498 463.507 196.19 453.449L194.793 454.881ZM209.647 491.111H207.647C207.647 504.589 202.908 515.906 193.396 525.186L194.793 526.617L196.19 528.049C206.484 518.006 211.647 505.652 211.647 491.111H209.647ZM194.793 526.617L193.379 525.203C184.172 534.41 171.561 539.109 155.302 539.109V541.109V543.109C172.374 543.109 186.091 538.147 196.207 528.031L194.793 526.617ZM155.302 541.109V539.109C139.044 539.109 126.3 534.41 116.845 525.186L115.448 526.617L114.052 528.049C124.402 538.147 138.228 543.109 155.302 543.109V541.109ZM115.448 526.617L116.862 525.203C107.587 515.927 102.956 504.605 102.956 491.111H100.956H98.9561C98.9561 505.636 103.987 517.984 114.034 528.031L115.448 526.617Z" fill="url(#paint0_linear_319_2152)" mask="url(#path-1-outside-1_319_2152)"/>
<defs>
<linearGradient id="paint0_linear_319_2152" x1="4.4746" y1="133.58" x2="337.832" y2="140" gradientUnits="userSpaceOnUse">
<stop offset="0.629708"/>
<stop offset="0.629808" stop-color="#FFC700"/>
</linearGradient>
</defs>
</svg>
