<svg width="451" height="315" viewBox="0 0 451 315" fill="none" xmlns="http://www.w3.org/2000/svg">
<g clip-path="url(#clip0_487_1248)">
<mask id="mask0_487_1248" style="mask-type:luminance" maskUnits="userSpaceOnUse" x="-28" y="-85" width="490" height="485">
<path d="M392.404 399.608L461.492 -14.6484L42.0838 -84.5955L-27.0041 329.661L392.404 399.608Z" fill="white"/>
<path d="M44.4219 120.71L66.9887 146.747L62.1041 155.354L28.1695 149.348L32.3241 142.028L57.6247 147.125L40.2903 127.99L44.4219 120.71ZM81.619 117.467L73.8264 126.747L76.9718 131.921L71.6481 138.262L54.3245 108.392L60.2131 101.379L92.6463 113.256L87.2631 119.667L81.619 117.467ZM75.6323 115.101L63.9372 110.54L70.4869 121.228L75.6323 115.101ZM95.4099 102.813L103.192 95.9737L107.225 100.558L93.5022 112.62L72.053 88.2382L77.9939 83.0169L95.4099 102.813ZM97.2525 68.3781L107.827 84.675C108.885 86.3047 110.1 87.2995 111.473 87.6585C112.846 88.0181 114.309 87.6945 115.861 86.6882C117.414 85.682 118.319 84.4705 118.576 83.0544C118.833 81.6374 118.433 80.1145 117.376 78.4855L106.801 62.1886L113.438 57.8861L123.988 74.144C125.566 76.5752 126.383 78.9675 126.439 81.3196C126.495 83.6717 125.92 85.8454 124.715 87.8394C123.535 89.8171 121.871 91.5023 119.723 92.8944C117.575 94.2865 115.379 95.1222 113.134 95.402C110.898 95.6386 108.743 95.2344 106.668 94.1909C104.577 93.1211 102.742 91.3702 101.165 88.9384L90.6147 72.6812L97.2525 68.3781ZM130.243 56.6206L132.944 62.6075L142.602 58.2556L145.113 63.8201L135.455 68.1728L138.384 74.6653L149.307 69.7429L151.913 75.5187L133.778 83.6908L120.425 54.0953L138.561 45.9225L141.167 51.6982L130.243 56.6206ZM192.191 43.5181C192.515 45.3707 192.387 47.1457 191.806 48.8427C191.221 50.5095 190.129 51.9676 188.531 53.2164C186.934 54.4651 184.828 55.3173 182.215 55.773L177.384 56.6153L179.389 68.096L171.595 69.455L166.009 37.4729L178.634 35.2723C181.187 34.8271 183.421 34.8914 185.337 35.4645C187.253 36.0384 188.787 37.023 189.938 38.4177C191.09 39.8132 191.841 41.5133 192.191 43.5181ZM180.54 49.6801C182.029 49.4205 183.077 48.8785 183.684 48.0528C184.292 47.2271 184.484 46.1766 184.261 44.9005C184.038 43.6252 183.501 42.7017 182.65 42.13C181.799 41.5589 180.629 41.4029 179.14 41.6625L174.901 42.4011L176.301 50.4195L180.54 49.6801ZM214.043 64.9548L207.111 52.7979L205.214 52.8255L205.393 65.0791L197.481 65.1932L197.009 32.732L210.286 32.541C212.845 32.504 215.026 32.9196 216.828 33.7876C218.661 34.656 220.036 35.8691 220.953 37.4286C221.87 38.9567 222.342 40.6772 222.37 42.5883C222.401 44.746 221.813 46.6816 220.604 48.3951C219.426 50.1073 217.654 51.3357 215.29 52.0786L222.971 64.8256L214.043 64.9548ZM205.132 47.2306L210.036 47.1597C211.486 47.1386 212.56 46.7687 213.259 46.0491C213.988 45.3298 214.344 44.3221 214.325 43.0276C214.307 41.7949 213.923 40.8287 213.173 40.1303C212.452 39.432 211.368 39.0928 209.919 39.1138L205.015 39.1847L205.132 47.2306ZM239.804 67.8673C236.791 67.3712 234.137 66.2153 231.842 64.3997C229.577 62.5892 227.903 60.314 226.823 57.5738C225.779 54.8081 225.514 51.8587 226.03 48.7254C226.547 45.5922 227.741 42.8987 229.612 40.6451C231.515 38.3965 233.829 36.7779 236.555 35.7899C239.312 34.8068 242.197 34.5634 245.21 35.0602C248.223 35.5563 250.862 36.7096 253.127 38.5202C255.422 40.3358 257.08 42.6083 258.099 45.3384C259.149 48.0736 259.416 51.0079 258.899 54.1411C258.383 57.2744 257.187 59.983 255.31 62.2671C253.438 64.5207 251.139 66.142 248.413 67.1301C245.687 68.1181 242.817 68.3641 239.804 67.8673ZM240.977 60.7491C243.534 61.1705 245.713 60.6545 247.515 59.2019C249.348 57.7545 250.495 55.6313 250.956 52.8327C251.422 50.0036 251.017 47.6246 249.741 45.6955C248.5 43.741 246.601 42.5535 244.044 42.1328C241.458 41.7063 239.25 42.202 237.422 43.6191C235.625 45.0413 234.491 47.1827 234.019 50.0422C233.553 52.8712 233.941 55.2623 235.182 57.2168C236.458 59.1458 238.39 60.3233 240.977 60.7491ZM288.31 58.1354C287.688 59.9106 286.71 61.3969 285.376 62.5958C284.051 63.7658 282.386 64.5061 280.382 64.8175C278.378 65.129 276.124 64.8461 273.62 63.9703L268.991 62.3509L265.14 73.3501L257.672 70.7372L268.399 40.0962L280.496 44.3285C282.941 45.1846 284.861 46.3294 286.254 47.7643C287.647 49.1986 288.506 50.806 288.831 52.5856C289.156 54.3645 288.982 56.2151 288.31 58.1354ZM275.13 57.8354C276.557 58.3347 277.737 58.3717 278.67 57.9469C279.602 57.5221 280.283 56.6987 280.711 55.4765C281.139 54.2543 281.121 53.1864 280.656 52.2729C280.192 51.3593 279.246 50.6526 277.819 50.1532L273.758 48.7321L271.069 56.4144L275.13 57.8354ZM295.35 87.3395C292.686 85.8474 290.584 83.8574 289.044 81.3693C287.53 78.8963 286.733 76.1875 286.65 73.2442C286.609 70.288 287.365 67.4249 288.918 64.6549C290.471 61.8848 292.511 59.7588 295.039 58.2766C297.593 56.8095 300.321 56.0753 303.221 56.0744C306.148 56.0881 308.943 56.8406 311.607 58.3326C314.271 59.8247 316.36 61.8076 317.873 64.2806C319.414 66.7687 320.198 69.4695 320.226 72.3832C320.282 75.3121 319.533 78.1615 317.981 80.9323C316.428 83.7022 314.381 85.842 311.838 87.3508C309.31 88.8323 306.596 89.5746 303.697 89.5754C300.796 89.5769 298.014 88.8316 295.35 87.3395ZM298.877 81.0458C301.138 82.3122 303.363 82.5689 305.553 81.8161C307.769 81.0789 309.571 79.4729 310.957 76.9983C312.359 74.4973 312.789 72.1224 312.246 69.8745C311.744 67.615 310.363 65.8517 308.102 64.586C305.815 63.3052 303.571 63.0197 301.37 63.7303C299.195 64.4558 297.399 66.0828 295.982 68.6113C294.58 71.1123 294.13 73.4929 294.632 75.7524C295.175 78.0004 296.59 79.765 298.877 81.0458ZM320.068 103.793C318.228 102.292 316.823 100.648 315.853 98.862C314.882 97.0755 314.433 95.2367 314.504 93.3449C314.599 91.4726 315.295 89.6928 316.594 88.0062L323.117 93.3279C322.453 94.3374 322.19 95.3171 322.331 96.2676C322.49 97.1935 323.012 98.0172 323.896 98.7387C324.804 99.4789 325.687 99.8613 326.544 99.8842C327.421 99.8827 328.162 99.5125 328.766 98.7716C329.273 98.1507 329.477 97.4616 329.379 96.705C329.304 95.9672 329.063 95.2139 328.657 94.4442C328.274 93.6942 327.657 92.6942 326.807 91.4435C325.591 89.6162 324.674 88.0326 324.056 86.6928C323.438 85.353 323.158 83.8912 323.217 82.3077C323.276 80.7235 323.949 79.1436 325.236 77.5674C327.147 75.2266 329.487 74.0917 332.256 74.1621C335.045 74.2088 337.801 75.3434 340.526 77.5659C343.298 79.8275 344.986 82.3191 345.591 85.0404C346.216 87.7381 345.622 90.3185 343.811 92.7805L337.179 87.3704C337.795 86.519 338.012 85.6426 337.833 84.7404C337.673 83.8144 337.164 83.0006 336.303 82.2987C335.562 81.6943 334.799 81.4099 334.013 81.4458C333.247 81.4573 332.562 81.8332 331.957 82.5734C331.295 83.3857 331.161 84.3308 331.554 85.408C331.949 86.4861 332.744 87.9505 333.94 89.8017C335.116 91.6764 336.002 93.274 336.596 94.5949C337.214 95.9347 337.504 97.3845 337.464 98.9435C337.425 100.503 336.792 102.036 335.563 103.541C334.393 104.974 332.96 105.973 331.263 106.539C329.591 107.124 327.779 107.198 325.827 106.76C323.876 106.322 321.956 105.333 320.068 103.793ZM360.393 96.0866L337.131 118.739L331.61 113.074L354.872 90.422L360.393 96.0866ZM379.693 120.154L374.695 124.05L369.402 117.267L348.79 133.333L343.924 127.096L364.537 111.03L359.245 104.247L364.242 100.351L379.693 120.154ZM387.028 131.611L359.401 148.678L355.242 141.951L382.867 124.884L387.028 131.611ZM367.063 165.969C365.813 163.184 365.312 160.333 365.558 157.419C365.818 154.531 366.792 151.881 368.481 149.469C370.211 147.071 372.526 145.223 375.424 143.924C378.323 142.625 381.229 142.133 384.143 142.449C387.069 142.793 389.697 143.829 392.027 145.555C394.369 147.31 396.165 149.58 397.415 152.365C398.664 155.15 399.16 157.986 398.9 160.873C398.653 163.788 397.673 166.424 395.958 168.78C394.257 171.165 391.956 173.007 389.058 174.306C386.159 175.606 383.239 176.103 380.297 175.8C377.383 175.484 374.762 174.463 372.432 172.736C370.102 171.01 368.313 168.754 367.063 165.969ZM373.648 163.017C374.709 165.381 376.342 166.912 378.55 167.612C380.769 168.341 383.174 168.124 385.763 166.964C388.38 165.791 390.141 164.14 391.045 162.012C391.99 159.899 391.932 157.661 390.872 155.298C389.799 152.906 388.166 151.34 385.975 150.599C383.795 149.887 381.383 150.123 378.738 151.308C376.121 152.482 374.34 154.124 373.395 156.238C372.491 158.366 372.575 160.626 373.648 163.017ZM381.074 210.453L379.262 202.755L395.734 185.298L376.233 189.88L374.421 182.182L406.037 174.753L407.849 182.452L391.287 199.93L410.878 195.327L412.69 203.025L381.074 210.453Z" fill="black"/>
</mask>
<g mask="url(#mask0_487_1248)">
<path d="M44.4233 120.707L44.9532 120.249L44.3029 119.499L43.8136 120.362L44.4233 120.707ZM66.9901 146.744L67.5998 147.089L67.8443 146.659L67.52 146.285L66.9901 146.744ZM62.1055 155.352L61.9834 156.042L62.4708 156.128L62.7153 155.697L62.1055 155.352ZM28.171 149.345L27.5612 148.999L27.0713 149.862L28.0488 150.035L28.171 149.345ZM32.3255 142.025L32.4634 141.338L31.9657 141.237L31.7152 141.679L32.3255 142.025ZM57.6261 147.122L57.4874 147.809L59.575 148.229L58.1452 146.652L57.6261 147.122ZM40.2917 127.988L39.6821 127.642L39.4316 128.082L39.772 128.458L40.2917 127.988ZM44.4233 120.707L43.8934 121.166L66.4602 147.203L66.9901 146.744L67.52 146.285L44.9532 120.249L44.4233 120.707ZM66.9901 146.744L66.3805 146.398L61.4959 155.006L62.1055 155.352L62.7153 155.697L67.5998 147.089L66.9901 146.744ZM62.1055 155.352L62.2277 154.662L28.2931 148.655L28.171 149.345L28.0488 150.035L61.9834 156.042L62.1055 155.352ZM28.171 149.345L28.7806 149.691L32.9351 142.371L32.3255 142.025L31.7152 141.679L27.5612 148.999L28.171 149.345ZM32.3255 142.025L32.1868 142.711L57.4874 147.809L57.6261 147.122L57.7642 146.435L32.4634 141.338L32.3255 142.025ZM57.6261 147.122L58.1452 146.652L40.8115 127.517L40.2917 127.988L39.772 128.458L57.1063 147.593L57.6261 147.122ZM40.2917 127.988L40.9015 128.333L45.0329 121.053L44.4233 120.707L43.8136 120.362L39.6821 127.642L40.2917 127.988ZM81.6211 117.465L81.8757 116.812L81.4072 116.629L81.0836 117.014L81.6211 117.465ZM73.8279 126.744L73.2911 126.294L72.9683 126.678L73.2292 127.108L73.8279 126.744ZM76.9732 131.919L77.51 132.369L77.8335 131.985L77.5725 131.556L76.9732 131.919ZM71.6496 138.259L71.043 138.61L71.5442 139.474L72.1863 138.709L71.6496 138.259ZM54.3259 108.389L53.7884 107.938L53.4727 108.315L53.7194 108.74L54.3259 108.389ZM60.2146 101.376L60.4558 100.718L59.9943 100.548L59.6777 100.925L60.2146 101.376ZM92.6477 113.253L93.1845 113.704L93.8272 112.939L92.8889 112.595L92.6477 113.253ZM87.2646 119.664L87.0101 120.317L87.4785 120.499L87.8014 120.115L87.2646 119.664ZM75.6337 115.098L76.1712 115.548L76.7992 114.8L75.8891 114.445L75.6337 115.098ZM63.9386 110.538L64.1932 109.885L62.2526 109.128L63.3411 110.903L63.9386 110.538ZM70.4884 121.225L69.8908 121.591L70.3997 122.422L71.0252 121.676L70.4884 121.225ZM81.6211 117.465L81.0836 117.014L73.2911 126.294L73.8279 126.744L74.3654 127.195L82.1579 117.915L81.6211 117.465ZM73.8279 126.744L73.2292 127.108L76.3745 132.283L76.9732 131.919L77.5725 131.556L74.4273 126.38L73.8279 126.744ZM76.9732 131.919L76.4364 131.468L71.1121 137.808L71.6496 138.259L72.1863 138.709L77.51 132.369L76.9732 131.919ZM71.6496 138.259L72.2561 137.907L54.9325 108.037L54.3259 108.389L53.7194 108.74L71.043 138.61L71.6496 138.259ZM54.3259 108.389L54.8627 108.839L60.752 101.826L60.2146 101.376L59.6777 100.925L53.7884 107.938L54.3259 108.389ZM60.2146 101.376L59.974 102.034L92.4065 113.911L92.6477 113.253L92.8889 112.595L60.4558 100.718L60.2146 101.376ZM92.6477 113.253L92.1109 112.803L86.7272 119.213L87.2646 119.664L87.8014 120.115L93.1845 113.704L92.6477 113.253ZM87.2646 119.664L87.5192 119.011L81.8757 116.812L81.6211 117.465L81.3658 118.117L87.0101 120.317L87.2646 119.664ZM75.6337 115.098L75.8891 114.445L64.1932 109.885L63.9386 110.538L63.6841 111.191L75.3792 115.751L75.6337 115.098ZM63.9386 110.538L63.3411 110.903L69.8908 121.591L70.4884 121.225L71.086 120.859L64.5363 110.171L63.9386 110.538ZM70.4884 121.225L71.0252 121.676L76.1712 115.548L75.6337 115.098L75.097 114.647L69.9516 120.775L70.4884 121.225ZM95.4113 102.81L94.885 103.273L95.348 103.799L95.8743 103.337L95.4113 102.81ZM103.193 95.971L103.72 95.5083L103.257 94.9821L102.73 95.4441L103.193 95.971ZM107.227 100.555L107.69 101.081L108.216 100.619L107.753 100.092L107.227 100.555ZM93.5036 112.617L92.9773 113.08L93.4403 113.606L93.9667 113.143L93.5036 112.617ZM72.0545 88.2354L71.5914 87.7093L71.0651 88.172L71.5281 88.6982L72.0545 88.2354ZM77.9953 83.0141L78.5217 82.5514L78.0586 82.0252L77.5323 82.488L77.9953 83.0141ZM95.4113 102.81L95.8743 103.337L103.656 96.4972L103.193 95.971L102.73 95.4441L94.9483 102.284L95.4113 102.81ZM103.193 95.971L102.667 96.4331L106.7 101.018L107.227 100.555L107.753 100.092L103.72 95.5083L103.193 95.971ZM107.227 100.555L106.764 100.029L93.0406 112.091L93.5036 112.617L93.9667 113.143L107.69 101.081L107.227 100.555ZM93.5036 112.617L94.03 112.154L72.5808 87.7727L72.0545 88.2354L71.5281 88.6982L92.9773 113.08L93.5036 112.617ZM72.0545 88.2354L72.5175 88.7616L78.4584 83.5403L77.9953 83.0141L77.5323 82.488L71.5914 87.7093L72.0545 88.2354ZM77.9953 83.0141L77.469 83.4769L94.885 103.273L95.4113 102.81L95.9375 102.348L78.5217 82.5514L77.9953 83.0141ZM97.2539 68.3754L97.8419 67.9947L97.4604 67.4061L96.8722 67.7875L97.2539 68.3754ZM106.802 62.1859L106.421 61.598L105.833 61.9794L106.214 62.5673L106.802 62.1859ZM113.439 57.8834L114.027 57.502L113.646 56.9141L113.058 57.2955L113.439 57.8834ZM124.716 87.8367L124.115 87.4744L124.114 87.4776L124.716 87.8367ZM113.135 95.3993L113.209 96.0956L113.216 96.0953L113.222 96.0943L113.135 95.3993ZM106.67 94.1881L106.35 94.8118L106.355 94.814L106.67 94.1881ZM90.6162 72.6785L90.2345 72.0906L89.6465 72.4713L90.0282 73.0592L90.6162 72.6785ZM97.2539 68.3754L96.6658 68.7568L107.241 85.0537L107.829 84.6723L108.417 84.2909L97.8419 67.9947L97.2539 68.3754ZM107.829 84.6723L107.241 85.0537C108.358 86.7751 109.701 87.9161 111.297 88.3336L111.475 87.6557L111.652 86.9777C110.502 86.6766 109.415 85.829 108.417 84.2909L107.829 84.6723ZM111.475 87.6557L111.297 88.3336C112.914 88.7575 114.579 88.3525 116.244 87.2733L115.862 86.6855L115.481 86.0977C114.041 87.0309 112.781 87.2733 111.652 86.9777L111.475 87.6557ZM115.862 86.6855L116.244 87.2733C117.91 86.1937 118.966 84.8334 119.267 83.1766L118.578 83.0516L117.888 82.9259C117.674 84.1015 116.92 85.1649 115.481 86.0977L115.862 86.6855ZM118.578 83.0516L119.267 83.1766C119.566 81.5308 119.085 79.8275 117.965 78.1014L117.377 78.4828L116.789 78.8635C117.784 80.3968 118.104 81.7394 117.888 82.9259L118.578 83.0516ZM117.377 78.4828L117.965 78.1014L107.391 61.8045L106.802 62.1859L106.214 62.5673L116.789 78.8635L117.377 78.4828ZM106.802 62.1859L107.183 62.7737L113.821 58.4713L113.439 57.8834L113.058 57.2955L106.421 61.598L106.802 62.1859ZM113.439 57.8834L112.851 58.2641L123.402 74.522L123.99 74.1413L124.578 73.7599L114.027 57.502L113.439 57.8834ZM123.99 74.1413L123.402 74.522C124.925 76.8702 125.687 79.1376 125.739 81.3336L126.44 81.3169L127.141 81.3002C127.081 78.7912 126.21 76.2748 124.578 73.7599L123.99 74.1413ZM126.44 81.3169L125.739 81.3336C125.792 83.5537 125.252 85.5954 124.115 87.4744L124.716 87.8367L125.316 88.1996C126.591 86.0893 127.2 83.785 127.141 81.3002L126.44 81.3169ZM124.716 87.8367L124.114 87.4776C122.995 89.3532 121.411 90.963 119.343 92.3038L119.725 92.8917L120.106 93.4795C122.334 92.0354 124.077 90.2753 125.318 88.1956L124.716 87.8367ZM119.725 92.8917L119.343 92.3038C117.272 93.6455 115.175 94.4388 113.048 94.7035L113.135 95.3993L113.222 96.0943C115.585 95.8 117.881 94.922 120.106 93.4795L119.725 92.8917ZM113.135 95.3993L113.061 94.7021C110.964 94.9242 108.944 94.5482 106.985 93.5623L106.67 94.1881L106.355 94.814C108.545 95.9159 110.835 96.3468 113.209 96.0956L113.135 95.3993ZM106.67 94.1881L106.989 93.5644C105.03 92.5621 103.281 90.9073 101.754 88.555L101.166 88.9357L100.578 89.3171C102.207 91.8278 104.127 93.6746 106.35 94.8118L106.67 94.1881ZM101.166 88.9357L101.754 88.555L91.2043 72.2971L90.6162 72.6785L90.0282 73.0592L100.578 89.3171L101.166 88.9357ZM90.6162 72.6785L90.9979 73.2664L97.6349 68.9632L97.2539 68.3754L96.8722 67.7875L90.2345 72.0906L90.6162 72.6785ZM130.244 56.6179L129.956 55.9794L129.317 56.2672L129.605 56.9062L130.244 56.6179ZM132.945 62.6048L132.307 62.8926L132.594 63.5316L133.233 63.2438L132.945 62.6048ZM142.604 58.2522L143.242 57.9644L142.954 57.3261L142.315 57.6137L142.604 58.2522ZM145.114 63.8173L145.403 64.4565L146.041 64.1681L145.753 63.5297L145.114 63.8173ZM135.456 68.1701L135.168 67.531L134.529 67.8187L134.817 68.4577L135.456 68.1701ZM138.385 74.6626L137.746 74.9502L138.034 75.5893L138.673 75.3009L138.385 74.6626ZM149.309 69.7402L149.948 69.4519L149.659 68.8134L149.021 69.1012L149.309 69.7402ZM151.915 75.516L152.202 76.1543L152.842 75.8667L152.554 75.2276L151.915 75.516ZM133.779 83.6881L133.14 83.9764L133.428 84.6149L134.067 84.3271L133.779 83.6881ZM120.427 54.0925L120.138 53.4534L119.5 53.7411L119.787 54.3802L120.427 54.0925ZM138.562 45.9197L139.201 45.632L138.913 44.9929L138.273 45.2813L138.562 45.9197ZM141.168 51.6955L141.456 52.3345L142.095 52.0462L141.807 51.4077L141.168 51.6955ZM130.244 56.6179L129.605 56.9062L132.307 62.8926L132.945 62.6048L133.584 62.3172L130.883 56.3301L130.244 56.6179ZM132.945 62.6048L133.233 63.2438L142.892 58.8912L142.604 58.2522L142.315 57.6137L132.657 61.9658L132.945 62.6048ZM142.604 58.2522L141.964 58.5405L144.475 64.1058L145.114 63.8173L145.753 63.5297L143.242 57.9644L142.604 58.2522ZM145.114 63.8173L144.826 63.179L135.168 67.531L135.456 68.1701L135.744 68.8084L145.403 64.4565L145.114 63.8173ZM135.456 68.1701L134.817 68.4577L137.746 74.9502L138.385 74.6626L139.025 74.3742L136.095 67.8817L135.456 68.1701ZM138.385 74.6626L138.673 75.3009L149.597 70.3785L149.309 69.7402L149.021 69.1012L138.097 74.0235L138.385 74.6626ZM149.309 69.7402L148.669 70.0278L151.275 75.8036L151.915 75.516L152.554 75.2276L149.948 69.4519L149.309 69.7402ZM151.915 75.516L151.627 74.8769L133.491 83.0496L133.779 83.6881L134.067 84.3271L152.202 76.1543L151.915 75.516ZM133.779 83.6881L134.418 83.4003L121.065 53.8041L120.427 54.0925L119.787 54.3802L133.14 83.9764L133.779 83.6881ZM120.427 54.0925L120.715 54.7309L138.85 46.5587L138.562 45.9197L138.273 45.2813L120.138 53.4534L120.427 54.0925ZM138.562 45.9197L137.923 46.208L140.529 51.9838L141.168 51.6955L141.807 51.4077L139.201 45.632L138.562 45.9197ZM141.168 51.6955L140.879 51.057L129.956 55.9794L130.244 56.6179L130.532 57.2569L141.456 52.3345L141.168 51.6955ZM191.808 48.8399L192.469 49.0724L192.471 49.067L191.808 48.8399ZM177.385 56.6126L177.264 55.9225L176.574 56.0426L176.695 56.7333L177.385 56.6126ZM179.391 68.0932L179.511 68.7832L180.202 68.6633L180.081 67.9725L179.391 68.0932ZM171.596 69.4523L170.906 69.5723L171.027 70.263L171.717 70.1423L171.596 69.4523ZM166.01 37.4702L165.89 36.7803L165.199 36.9009L165.32 37.5909L166.01 37.4702ZM174.902 42.3984L174.782 41.7085L174.091 41.829L174.212 42.5191L174.902 42.3984ZM176.303 50.4167L175.612 50.5374L175.733 51.2275L176.424 51.1067L176.303 50.4167ZM192.193 43.5153L191.502 43.6352C191.807 45.3782 191.685 47.0329 191.144 48.6134L191.808 48.8399L192.471 49.067C193.091 47.2525 193.226 45.3577 192.883 43.3946L192.193 43.5153ZM191.808 48.8399L191.147 48.6081C190.611 50.1307 189.609 51.483 188.101 52.6615L188.533 53.2136L188.964 53.7658C190.652 52.4468 191.833 50.8836 192.469 49.0724L191.808 48.8399ZM188.533 53.2136L188.101 52.6615C186.617 53.8212 184.629 54.6382 182.096 55.0803L182.216 55.7702L182.337 56.4602C185.03 55.9909 187.252 55.1042 188.964 53.7658L188.533 53.2136ZM182.216 55.7702L182.096 55.0803L177.264 55.9225L177.385 56.6126L177.506 57.3026L182.337 56.4602L182.216 55.7702ZM177.385 56.6126L176.695 56.7333L178.7 68.2131L179.391 68.0932L180.081 67.9725L178.075 56.4918L177.385 56.6126ZM179.391 68.0932L179.27 67.4025L171.476 68.7617L171.596 69.4523L171.717 70.1423L179.511 68.7832L179.391 68.0932ZM171.596 69.4523L172.287 69.3317L166.701 37.3503L166.01 37.4702L165.32 37.5909L170.906 69.5723L171.596 69.4523ZM166.01 37.4702L166.131 38.1609L178.756 35.9596L178.636 35.2695L178.515 34.5788L165.89 36.7803L166.01 37.4702ZM178.636 35.2695L178.756 35.9596C181.232 35.5278 183.352 35.5986 185.137 36.1336L185.338 35.4618L185.54 34.7907C183.493 34.178 181.144 34.1208 178.515 34.5788L178.636 35.2695ZM185.338 35.4618L185.137 36.1336C186.935 36.6715 188.345 37.5843 189.399 38.8611L189.94 38.415L190.481 37.9696C189.231 36.4556 187.574 35.3999 185.54 34.7907L185.338 35.4618ZM189.94 38.415L189.399 38.8611C190.465 40.152 191.171 41.7352 191.502 43.6352L192.193 43.5153L192.883 43.3946C192.515 41.286 191.719 39.4697 190.481 37.9696L189.94 38.415ZM180.542 49.6774L180.662 50.3681C182.246 50.0916 183.495 49.4922 184.25 48.4646L183.686 48.0501L183.121 47.6348C182.662 48.2587 181.815 48.7447 180.421 48.9874L180.542 49.6774ZM183.686 48.0501L184.25 48.4646C184.999 47.4473 185.199 46.1885 184.953 44.7771L184.263 44.8978L183.572 45.0184C183.771 46.1584 183.587 47.0014 183.121 47.6348L183.686 48.0501ZM184.263 44.8978L184.953 44.7771C184.706 43.3664 184.091 42.2502 183.042 41.5459L182.652 42.1272L182.26 42.7091C182.913 43.1477 183.373 43.8785 183.572 45.0184L184.263 44.8978ZM182.652 42.1272L183.042 41.5459C181.982 40.8343 180.604 40.6933 179.02 40.969L179.141 41.6597L179.262 42.3497C180.656 42.1069 181.617 42.2773 182.26 42.7091L182.652 42.1272ZM179.141 41.6597L179.02 40.969L174.782 41.7085L174.902 42.3984L175.023 43.0891L179.262 42.3497L179.141 41.6597ZM174.902 42.3984L174.212 42.5191L175.612 50.5374L176.303 50.4167L176.994 50.2961L175.593 42.2785L174.902 42.3984ZM176.303 50.4167L176.424 51.1067L180.662 50.3681L180.542 49.6774L180.421 48.9874L176.183 49.7268L176.303 50.4167ZM214.045 64.9521L213.436 65.2987L213.641 65.6582L214.055 65.6527L214.045 64.9521ZM207.112 52.7952L207.721 52.4486L207.516 52.089L207.102 52.0945L207.112 52.7952ZM205.215 52.8227L205.205 52.122L204.504 52.1323L204.514 52.833L205.215 52.8227ZM205.394 65.0764L205.404 65.777L206.105 65.7668L206.095 65.066L205.394 65.0764ZM197.483 65.1905L196.782 65.2007L196.792 65.9014L197.493 65.8912L197.483 65.1905ZM197.01 32.7292L197 32.0285L196.299 32.0387L196.309 32.7395L197.01 32.7292ZM216.829 33.7849L216.525 34.4161L216.53 34.4183L216.829 33.7849ZM220.955 37.4259L220.35 37.7811L220.353 37.7859L220.955 37.4259ZM220.605 48.3924L220.032 47.9885L220.028 47.9949L220.605 48.3924ZM215.291 52.0758L215.081 51.4079L214.232 51.6747L214.691 52.4374L215.291 52.0758ZM222.973 64.8228L222.983 65.5236L224.203 65.5061L223.574 64.4621L222.973 64.8228ZM205.134 47.2278L204.433 47.2374L204.443 47.9381L205.144 47.9278L205.134 47.2278ZM213.26 46.0464L212.768 45.5481L212.762 45.5528L212.757 45.5583L213.26 46.0464ZM213.174 40.1276L212.686 40.6307L212.691 40.6359L212.696 40.641L213.174 40.1276ZM205.016 39.1819L205.006 38.4812L204.305 38.4908L204.316 39.1915L205.016 39.1819ZM214.045 64.9521L214.654 64.6046L207.721 52.4486L207.112 52.7952L206.503 53.142L213.436 65.2987L214.045 64.9521ZM207.112 52.7952L207.102 52.0945L205.205 52.122L205.215 52.8227L205.225 53.5233L207.122 53.4959L207.112 52.7952ZM205.215 52.8227L204.514 52.833L204.693 65.0866L205.394 65.0764L206.095 65.066L205.917 52.8125L205.215 52.8227ZM205.394 65.0764L205.384 64.3757L197.473 64.4899L197.483 65.1905L197.493 65.8912L205.404 65.777L205.394 65.0764ZM197.483 65.1905L198.184 65.1802L197.711 32.7197L197.01 32.7292L196.309 32.7395L196.782 65.2007L197.483 65.1905ZM197.01 32.7292L197.02 33.4299L210.297 33.239L210.287 32.5383L210.277 31.8375L197 32.0285L197.01 32.7292ZM210.287 32.5383L210.297 33.239C212.778 33.203 214.845 33.6067 216.525 34.4161L216.829 33.7849L217.134 33.1537C215.211 32.2271 212.916 31.7997 210.277 31.8375L210.287 32.5383ZM216.829 33.7849L216.53 34.4183C218.251 35.2338 219.512 36.3571 220.35 37.7811L220.955 37.4259L221.559 37.0706C220.562 35.3756 219.073 34.0725 217.13 33.1516L216.829 33.7849ZM220.955 37.4259L220.353 37.7859C221.202 39.201 221.644 40.7986 221.67 42.5952L222.371 42.5856L223.072 42.5754C223.043 40.5495 222.54 38.7076 221.556 37.0658L220.955 37.4259ZM222.371 42.5856L221.67 42.5952C221.7 44.6096 221.153 46.3995 220.032 47.9885L220.605 48.3924L221.178 48.7962C222.475 46.9581 223.106 44.8768 223.072 42.5754L222.371 42.5856ZM220.605 48.3924L220.028 47.9949C218.954 49.5555 217.326 50.7025 215.081 51.4079L215.291 52.0758L215.502 52.7446C217.986 51.964 219.9 50.6544 221.183 48.7892L220.605 48.3924ZM215.291 52.0758L214.691 52.4374L222.372 65.1844L222.973 64.8228L223.574 64.4621L215.892 51.715L215.291 52.0758ZM222.973 64.8228L222.963 64.1222L214.035 64.2513L214.045 64.9521L214.055 65.6527L222.983 65.5236L222.973 64.8228ZM205.134 47.2278L205.144 47.9278L210.048 47.8577L210.037 47.157L210.027 46.4562L205.123 46.5271L205.134 47.2278ZM210.037 47.157L210.048 47.8577C211.6 47.8353 212.887 47.4368 213.763 46.5353L213.26 46.0464L212.757 45.5583C212.236 46.0952 211.374 46.4365 210.027 46.4562L210.037 47.157ZM213.26 46.0464L213.752 46.5455C214.652 45.6585 215.048 44.4473 215.028 43.0146L214.327 43.0249L213.626 43.0351C213.642 44.1922 213.328 44.9957 212.768 45.5481L213.26 46.0464ZM214.327 43.0249L215.028 43.0146C215.007 41.6324 214.57 40.4697 213.652 39.6148L213.174 40.1276L212.696 40.641C213.279 41.183 213.61 41.9512 213.626 43.0351L214.327 43.0249ZM213.174 40.1276L213.662 39.6251C212.76 38.7486 211.463 38.3881 209.91 38.4104L209.92 39.1111L209.93 39.8118C211.277 39.792 212.149 40.1093 212.686 40.6307L213.174 40.1276ZM209.92 39.1111L209.91 38.4104L205.006 38.4812L205.016 39.1819L205.027 39.882L209.93 39.8118L209.92 39.1111ZM205.016 39.1819L204.316 39.1915L204.433 47.2374L205.134 47.2278L205.835 47.2176L205.718 39.1717L205.016 39.1819ZM231.843 64.397L231.405 64.9441L231.408 64.9467L231.843 64.397ZM226.825 57.571L226.169 57.8183L226.171 57.8235L226.173 57.8281L226.825 57.571ZM229.614 40.6424L229.079 40.1901L229.074 40.1951L229.614 40.6424ZM236.557 35.7871L236.321 35.1269L236.318 35.1285L236.557 35.7871ZM253.128 38.5174L252.69 39.0645L252.693 39.0672L253.128 38.5174ZM258.1 45.3357L257.444 45.5807L257.446 45.5867L258.1 45.3357ZM255.311 62.2643L255.851 62.7123L255.853 62.7092L255.311 62.2643ZM247.517 59.1991L247.082 58.6494L247.077 58.6541L247.517 59.1991ZM249.742 45.6928L249.15 46.0685L249.154 46.0742L249.157 46.0797L249.742 45.6928ZM237.424 43.6163L236.994 43.063L236.989 43.0671L237.424 43.6163ZM235.184 57.2141L234.592 57.5898L234.595 57.5954L234.599 57.6003L235.184 57.2141ZM239.806 67.8646L239.92 67.1732C237.019 66.6958 234.476 65.5863 232.278 63.8473L231.843 64.397L231.408 64.9467C233.801 66.839 236.567 68.0412 239.692 68.556L239.806 67.8646ZM231.843 64.397L232.281 63.8499C230.113 62.1174 228.514 59.9426 227.477 57.314L226.825 57.571L226.173 57.8281C227.297 60.6802 229.043 63.0562 231.405 64.9441L231.843 64.397ZM226.825 57.571L227.481 57.3238C226.483 54.6818 226.226 51.8579 226.724 48.8366L226.032 48.7227L225.34 48.6088C224.806 51.8548 225.078 54.9291 226.169 57.8183L226.825 57.571ZM226.032 48.7227L226.724 48.8366C227.222 45.8155 228.368 43.2404 230.153 41.0903L229.614 40.6424L229.074 40.1951C227.117 42.5524 225.875 45.3635 225.34 48.6088L226.032 48.7227ZM229.614 40.6424L230.15 41.0947C231.974 38.9383 234.186 37.3914 236.796 36.4457L236.557 35.7871L236.318 35.1285C233.474 36.1589 231.059 37.8494 229.079 40.1901L229.614 40.6424ZM236.557 35.7871L236.792 36.4472C239.432 35.5058 242.196 35.2707 245.097 35.7488L245.211 35.0575L245.325 34.3661C242.2 33.8506 239.195 34.1023 236.321 35.1269L236.557 35.7871ZM245.211 35.0575L245.097 35.7488C247.998 36.2263 250.524 37.333 252.69 39.0645L253.128 38.5174L253.566 37.9702C251.202 36.0808 248.45 34.8809 245.325 34.3661L245.211 35.0575ZM253.128 38.5174L252.693 39.0672C254.888 40.8035 256.469 42.9709 257.444 45.5807L258.1 45.3357L258.757 45.0908C257.693 42.2402 255.959 39.8625 253.563 37.9677L253.128 38.5174ZM258.1 45.3357L257.446 45.5867C258.448 48.196 258.707 51.0033 258.209 54.0245L258.901 54.1384L259.593 54.2523C260.127 51.0071 259.853 47.9459 258.755 45.0847L258.1 45.3357ZM258.901 54.1384L258.209 54.0245C257.712 57.0458 256.562 59.6379 254.77 61.8196L255.311 62.2643L255.853 62.7092C257.814 60.3227 259.058 57.4976 259.593 54.2523L258.901 54.1384ZM255.311 62.2643L254.772 61.8171C252.979 63.9759 250.783 65.5234 248.175 66.4687L248.415 67.1273L248.654 67.7859C251.498 66.755 253.9 65.0608 255.851 62.7123L255.311 62.2643ZM248.415 67.1273L248.175 66.4687C245.568 67.4134 242.821 67.6513 239.92 67.1732L239.806 67.8646L239.692 68.556C242.817 69.0714 245.809 68.8174 248.654 67.7859L248.415 67.1273ZM240.979 60.7464L240.865 61.4377C243.592 61.8876 245.979 61.3388 247.957 59.745L247.517 59.1991L247.077 58.6541C245.449 59.9654 243.478 60.4486 241.093 60.055L240.979 60.7464ZM247.517 59.1991L247.951 59.749C249.95 58.1707 251.167 55.8753 251.649 52.9439L250.957 52.83L250.266 52.7153C249.827 55.3813 248.75 57.332 247.082 58.6494L247.517 59.1991ZM250.957 52.83L251.649 52.9439C252.137 49.9842 251.723 47.4161 250.327 45.3065L249.742 45.6928L249.157 46.0797C250.314 47.8276 250.711 50.017 250.266 52.7153L250.957 52.83ZM249.742 45.6928L250.334 45.3177C248.973 43.1733 246.887 41.8879 244.16 41.4387L244.046 42.1301L243.932 42.8214C246.318 43.2143 248.03 44.304 249.15 46.0685L249.742 45.6928ZM244.046 42.1301L244.16 41.4387C241.408 40.9848 238.997 41.5096 236.994 43.063L237.424 43.6163L237.854 44.1704C239.506 42.8888 241.509 42.4216 243.932 42.8214L244.046 42.1301ZM237.424 43.6163L236.989 43.0671C235.021 44.6243 233.821 46.9409 233.329 49.9255L234.021 50.0394L234.712 50.1534C235.163 47.4183 236.232 45.4534 237.859 44.1655L237.424 43.6163ZM234.021 50.0394L233.329 49.9255C232.842 52.8818 233.237 55.4574 234.592 57.5898L235.184 57.2141L235.775 56.8389C234.647 55.0624 234.268 52.8546 234.712 50.1534L234.021 50.0394ZM235.184 57.2141L234.599 57.6003C235.998 59.7146 238.113 60.9845 240.865 61.4377L240.979 60.7464L241.093 60.055C238.67 59.6559 236.922 58.5716 235.768 56.8278L235.184 57.2141ZM285.377 62.5931L285.841 63.1187L285.845 63.1144L285.377 62.5931ZM268.992 62.3482L269.224 61.6863L268.562 61.4552L268.331 62.1164L268.992 62.3482ZM265.142 73.3473L264.91 74.0084L265.572 74.2403L265.803 73.5784L265.142 73.3473ZM257.674 70.7344L257.012 70.5027L256.781 71.1644L257.443 71.3956L257.674 70.7344ZM268.401 40.0934L268.633 39.4317L267.97 39.2005L267.739 39.8617L268.401 40.0934ZM273.76 48.7294L273.991 48.0683L273.329 47.8364L273.098 48.4983L273.76 48.7294ZM271.071 56.4116L270.409 56.1806L270.177 56.8416L270.839 57.0727L271.071 56.4116ZM288.311 58.1327L287.649 57.9008C287.065 59.5707 286.151 60.9562 284.908 62.0723L285.377 62.5931L285.845 63.1144C287.272 61.8329 288.314 60.2451 288.973 58.3644L288.311 58.1327ZM285.377 62.5931L284.913 62.0681C283.703 63.1365 282.168 63.8287 280.276 64.1227L280.384 64.8148L280.491 65.5069C282.608 65.1786 284.402 64.3897 285.841 63.1187L285.377 62.5931ZM280.384 64.8148L280.276 64.1227C278.415 64.4113 276.281 64.1554 273.853 63.3065L273.621 63.9676L273.39 64.6288C275.97 65.5314 278.343 65.8406 280.491 65.5069L280.384 64.8148ZM273.621 63.9676L273.853 63.3065L269.224 61.6863L268.992 62.3482L268.761 63.0092L273.39 64.6288L273.621 63.9676ZM268.992 62.3482L268.331 62.1164L264.48 73.1156L265.142 73.3473L265.803 73.5784L269.654 62.5793L268.992 62.3482ZM265.142 73.3473L265.374 72.6863L257.906 70.0734L257.674 70.7344L257.443 71.3956L264.91 74.0084L265.142 73.3473ZM257.674 70.7344L258.336 70.9656L269.062 40.3245L268.401 40.0934L267.739 39.8617L257.012 70.5027L257.674 70.7344ZM268.401 40.0934L268.17 40.7546L280.266 44.9869L280.497 44.3257L280.729 43.6647L268.633 39.4317L268.401 40.0934ZM280.497 44.3257L280.266 44.9869C282.638 45.8172 284.454 46.9122 285.752 48.2496L286.255 47.7616L286.759 47.2737C285.27 45.7412 283.248 44.5458 280.729 43.6647L280.497 44.3257ZM286.255 47.7616L285.752 48.2496C287.059 49.5956 287.845 51.0799 288.143 52.708L288.833 52.5829L289.522 52.4571C289.17 50.5265 288.238 48.797 286.759 47.2737L286.255 47.7616ZM288.833 52.5829L288.143 52.708C288.443 54.3543 288.287 56.0806 287.649 57.9008L288.311 58.1327L288.973 58.3644C289.68 56.3435 289.871 54.3701 289.522 52.4571L288.833 52.5829ZM275.132 57.8327L274.9 58.4938C276.418 59.0253 277.801 59.1103 278.962 58.5823L278.671 57.9442L278.381 57.3069C277.676 57.6276 276.699 57.6388 275.364 57.1717L275.132 57.8327ZM278.671 57.9442L278.962 58.5823C280.112 58.058 280.901 57.0573 281.374 55.7056L280.713 55.4738L280.05 55.2426C279.669 56.3346 279.097 56.9809 278.381 57.3069L278.671 57.9442ZM280.713 55.4738L281.374 55.7056C281.848 54.3532 281.855 53.0794 281.283 51.9524L280.658 52.2701L280.033 52.5872C280.389 53.2887 280.433 54.1499 280.05 55.2426L280.713 55.4738ZM280.658 52.2701L281.283 51.9524C280.705 50.8154 279.57 50.0201 278.053 49.4894L277.821 50.1504L277.59 50.8123C278.925 51.2794 279.682 51.8971 280.033 52.5872L280.658 52.2701ZM277.821 50.1504L278.053 49.4894L273.991 48.0683L273.76 48.7294L273.528 49.3912L277.59 50.8123L277.821 50.1504ZM273.76 48.7294L273.098 48.4983L270.409 56.1806L271.071 56.4116L271.732 56.6434L274.422 48.9613L273.76 48.7294ZM271.071 56.4116L270.839 57.0727L274.9 58.4938L275.132 57.8327L275.364 57.1717L271.302 55.7505L271.071 56.4116ZM289.045 81.3666L288.447 81.7321L288.449 81.7352L289.045 81.3666ZM286.652 73.2415L285.951 73.251L285.951 73.256L285.951 73.2611L286.652 73.2415ZM295.04 58.2739L294.691 57.6665L294.685 57.6691L295.04 58.2739ZM303.222 56.0717L303.225 55.3704L303.222 55.3705L303.222 56.0717ZM317.875 64.2778L317.277 64.6434L317.278 64.6465L317.875 64.2778ZM320.228 72.3805L319.527 72.3872L319.527 72.3936L320.228 72.3805ZM311.839 87.3481L312.194 87.9521L312.197 87.9505L311.839 87.3481ZM305.554 81.8133L305.333 81.1484L305.326 81.1508L305.554 81.8133ZM312.247 69.8717L311.562 70.0232L311.564 70.0299L311.565 70.0364L312.247 69.8717ZM301.371 63.7275L301.155 63.0608L301.149 63.0632L301.371 63.7275ZM294.633 75.7497L293.948 75.9018L293.95 75.9078L293.952 75.9145L294.633 75.7497ZM295.351 87.3368L295.694 86.7255C293.129 85.289 291.116 83.3805 289.641 80.9978L289.045 81.3666L288.449 81.7352C290.055 84.3287 292.245 86.4004 295.009 87.9482L295.351 87.3368ZM289.045 81.3666L289.643 81.0009C288.195 78.634 287.431 76.0453 287.352 73.2219L286.652 73.2415L285.951 73.2611C286.037 76.325 286.869 79.1531 288.447 81.7321L289.045 81.3666ZM286.652 73.2415L287.352 73.2319C287.314 70.4082 288.034 67.6656 289.531 64.995L288.92 64.6522L288.308 64.3094C286.7 67.1788 285.909 70.1625 285.951 73.251L286.652 73.2415ZM288.92 64.6522L289.531 64.995C291.028 62.3236 292.984 60.2921 295.395 58.8786L295.04 58.2739L294.685 57.6691C292.042 59.2194 289.916 61.4406 288.308 64.3094L288.92 64.6522ZM295.04 58.2739L295.389 58.8812C297.84 57.4742 300.447 56.7732 303.223 56.7722L303.222 56.0717L303.222 55.3705C300.198 55.3719 297.35 56.1394 294.691 57.6665L295.04 58.2739ZM303.222 56.0717L303.219 56.7723C306.022 56.7852 308.702 57.5048 311.266 58.9413L311.609 58.3299L311.951 57.7186C309.188 56.1716 306.276 55.3848 303.225 55.3711L303.222 56.0717ZM311.609 58.3299L311.266 58.9413C313.831 60.3777 315.83 62.2781 317.277 64.6434L317.875 64.2778L318.472 63.9122C316.894 61.331 314.714 59.2663 311.951 57.7186L311.609 58.3299ZM317.875 64.2778L317.278 64.6465C318.752 67.0262 319.499 69.6022 319.527 72.3872L320.228 72.3805L320.929 72.3738C320.899 69.3313 320.078 66.5057 318.471 63.9091L317.875 64.2778ZM320.228 72.3805L319.527 72.3936C319.58 75.1878 318.868 77.9154 317.371 80.5867L317.982 80.9295L318.594 81.2716C320.202 78.4022 320.987 75.4309 320.929 72.3673L320.228 72.3805ZM317.982 80.9295L317.371 80.5867C315.874 83.258 313.911 85.3039 311.481 86.7457L311.839 87.3481L312.197 87.9505C314.854 86.374 316.986 84.141 318.594 81.2716L317.982 80.9295ZM311.839 87.3481L311.484 86.7434C309.063 88.163 306.471 88.8709 303.697 88.8721L303.698 89.5727L303.698 90.2739C306.724 90.272 309.56 89.4968 312.194 87.9521L311.839 87.3481ZM303.698 89.5727L303.697 88.8721C300.924 88.8734 298.259 88.162 295.694 86.7255L295.351 87.3368L295.009 87.9482C297.772 89.4958 300.671 90.2748 303.698 90.2739L303.698 89.5727ZM298.879 81.0431L298.536 81.6545C300.948 83.0049 303.38 83.3019 305.782 82.4764L305.554 81.8133L305.326 81.1508C303.349 81.8305 301.331 81.6133 299.221 80.4318L298.879 81.0431ZM305.554 81.8133L305.775 82.4781C308.191 81.6742 310.118 79.9304 311.57 77.3384L310.959 76.9956L310.347 76.6528C309.027 79.0097 307.349 80.4774 305.333 81.1484L305.554 81.8133ZM310.959 76.9956L311.57 77.3384C313.037 74.7217 313.523 72.1658 312.928 69.7076L312.247 69.8717L311.565 70.0364C312.058 72.0735 311.685 74.2674 310.347 76.6528L310.959 76.9956ZM312.247 69.8717L312.931 69.7201C312.381 67.2416 310.858 65.3225 308.447 63.972L308.104 64.5833L307.762 65.1947C309.871 66.3761 311.109 67.9828 311.562 70.0232L312.247 69.8717ZM308.104 64.5833L308.447 63.972C306.014 62.6095 303.568 62.2818 301.155 63.0608L301.371 63.7275L301.586 64.3942C303.577 63.7523 305.619 63.9949 307.762 65.1947L308.104 64.5833ZM301.371 63.7275L301.149 63.0632C298.768 63.8575 296.851 65.6275 295.372 68.2657L295.984 68.6085L296.595 68.9513C297.95 66.5334 299.624 65.0494 301.593 64.3925L301.371 63.7275ZM295.984 68.6085L295.372 68.2657C293.907 70.8799 293.401 73.4359 293.948 75.9018L294.633 75.7497L295.317 75.5981C294.861 73.5444 295.256 71.3393 296.595 68.9513L295.984 68.6085ZM294.633 75.7497L293.952 75.9145C294.547 78.3779 296.103 80.2919 298.536 81.6545L298.879 81.0431L299.221 80.4318C297.079 79.232 295.805 77.6174 295.314 75.5855L294.633 75.7497ZM314.506 93.3422L313.805 93.3063L313.805 93.3156L314.506 93.3422ZM316.595 88.0035L317.038 87.4608L316.479 87.0045L316.039 87.5761L316.595 88.0035ZM323.119 93.3252L323.705 93.7106L324.052 93.1825L323.563 92.7826L323.119 93.3252ZM322.332 96.2649L321.639 96.3666L321.639 96.3752L321.641 96.3833L322.332 96.2649ZM326.545 99.8814L326.527 100.582L326.537 100.582L326.547 100.582L326.545 99.8814ZM329.38 96.7023L328.683 96.7728L328.684 96.7829L328.685 96.7924L329.38 96.7023ZM328.658 94.4415L328.033 94.76L328.036 94.7646L328.038 94.7685L328.658 94.4415ZM326.808 91.4407L326.224 91.8285L326.228 91.8341L326.808 91.4407ZM332.257 74.1594L332.24 74.8598L332.246 74.86L332.257 74.1594ZM345.592 85.0376L344.908 85.1899L344.909 85.1958L345.592 85.0376ZM343.812 92.7778L343.369 93.3204L343.94 93.7864L344.377 93.1924L343.812 92.7778ZM337.181 87.3677L336.612 86.9575L336.225 87.4925L336.738 87.9104L337.181 87.3677ZM337.835 84.7376L337.144 84.8568L337.145 84.8656L337.147 84.8745L337.835 84.7376ZM334.015 81.4431L334.026 82.1433L334.036 82.1436L334.047 82.1426L334.015 81.4431ZM333.942 89.7989L334.535 89.4263L334.53 89.4183L333.942 89.7989ZM336.598 94.5921L335.958 94.8791L335.961 94.8852L336.598 94.5921ZM331.265 106.536L331.043 105.872L331.038 105.873L331.033 105.875L331.265 106.536ZM320.069 103.79L320.513 103.248C318.731 101.794 317.39 100.219 316.47 98.5244L315.854 98.8592L315.238 99.1933C316.259 101.072 317.727 102.784 319.626 104.333L320.069 103.79ZM315.854 98.8592L316.47 98.5244C315.555 96.8402 315.14 95.125 315.206 93.3687L314.506 93.3422L313.805 93.3156C313.729 95.3422 314.212 97.3046 315.238 99.1933L315.854 98.8592ZM314.506 93.3422L315.206 93.3779C315.293 91.6663 315.928 90.0204 317.151 88.4307L316.595 88.0035L316.039 87.5761C314.667 89.3605 313.909 91.2734 313.805 93.3063L314.506 93.3422ZM316.595 88.0035L316.151 88.5461L322.676 93.8686L323.119 93.3252L323.563 92.7826L317.038 87.4608L316.595 88.0035ZM323.119 93.3252L322.533 92.9399C321.8 94.0549 321.467 95.2056 321.639 96.3666L322.332 96.2649L323.025 96.1624C322.917 95.4233 323.109 94.615 323.705 93.7106L323.119 93.3252ZM322.332 96.2649L321.641 96.3833C321.835 97.5097 322.468 98.4741 323.454 99.2785L323.898 98.7359L324.341 98.1925C323.558 97.5548 323.148 96.8712 323.023 96.1457L322.332 96.2649ZM323.898 98.7359L323.454 99.2785C324.44 100.082 325.467 100.553 326.527 100.582L326.545 99.8814L326.564 99.1806C325.91 99.1632 325.172 98.8711 324.341 98.1925L323.898 98.7359ZM326.545 99.8814L326.547 100.582C327.655 100.581 328.587 100.098 329.311 99.2124L328.768 98.7689L328.225 98.326C327.739 98.9205 327.19 99.1799 326.545 99.1803L326.545 99.8814ZM328.768 98.7689L329.311 99.2124C329.933 98.4503 330.2 97.5707 330.076 96.6115L329.38 96.7023L328.685 96.7924C328.757 97.3478 328.616 97.8457 328.225 98.326L328.768 98.7689ZM329.38 96.7023L330.077 96.6317C329.992 95.79 329.719 94.9503 329.278 94.1144L328.658 94.4415L328.038 94.7685C328.41 95.4721 328.619 96.1391 328.683 96.7728L329.38 96.7023ZM328.658 94.4415L329.283 94.123C328.88 93.3341 328.244 92.306 327.388 91.0466L326.808 91.4407L326.228 91.8341C327.073 93.0768 327.67 94.0488 328.033 94.76L328.658 94.4415ZM326.808 91.4407L327.392 91.0522C326.188 89.2424 325.292 87.6922 324.694 86.3963L324.058 86.69L323.421 86.9831C324.059 88.3675 324.997 89.9837 326.224 91.8285L326.808 91.4407ZM324.058 86.69L324.694 86.3963C324.125 85.1641 323.864 83.8127 323.919 82.3309L323.218 82.305L322.518 82.2783C322.456 83.9636 322.753 85.5363 323.421 86.9831L324.058 86.69ZM323.218 82.305L323.919 82.3309C323.971 80.938 324.562 79.5 325.78 78.0076L325.237 77.5647L324.694 77.1218C323.338 78.7824 322.583 80.5042 322.518 82.2783L323.218 82.305ZM325.237 77.5647L325.78 78.0076C327.568 75.8174 329.709 74.7956 332.24 74.8598L332.257 74.1594L332.275 73.4591C329.268 73.3823 326.728 74.6309 324.694 77.1218L325.237 77.5647ZM332.257 74.1594L332.246 74.86C334.84 74.9033 337.449 75.9565 340.084 78.1058L340.527 77.5631L340.97 77.0204C338.156 74.7248 335.253 73.5089 332.269 73.4588L332.257 74.1594ZM340.527 77.5631L340.084 78.1058C342.769 80.2961 344.346 82.6604 344.908 85.1899L345.592 85.0376L346.276 84.8861C345.629 81.9714 343.83 79.3528 340.97 77.0204L340.527 77.5631ZM345.592 85.0376L344.909 85.1958C345.483 87.6725 344.952 90.0461 343.247 92.3624L343.812 92.7778L344.377 93.1924C346.295 90.5855 346.95 87.7987 346.275 84.8802L345.592 85.0376ZM343.812 92.7778L344.256 92.2344L337.624 86.825L337.181 87.3677L336.738 87.9104L343.369 93.3204L343.812 92.7778ZM337.181 87.3677L337.749 87.7779C338.46 86.7941 338.745 85.7227 338.523 84.6016L337.835 84.7376L337.147 84.8745C337.283 85.5577 337.131 86.2393 336.612 86.9575L337.181 87.3677ZM337.835 84.7376L338.525 84.6191C338.332 83.4972 337.714 82.5417 336.748 81.7534L336.304 82.296L335.861 82.8387C336.616 83.4539 337.018 84.1262 337.144 84.8568L337.835 84.7376ZM336.304 82.296L336.748 81.7534C335.904 81.0641 334.976 80.6978 333.983 80.7431L334.015 81.4431L334.047 82.1426C334.625 82.1168 335.224 82.3189 335.861 82.8387L336.304 82.296ZM334.015 81.4431L334.004 80.7424C332.981 80.7579 332.116 81.2707 331.416 82.1278L331.959 82.5707L332.503 83.0144C333.012 82.3904 333.516 82.1513 334.026 82.1433L334.015 81.4431ZM331.959 82.5707L331.416 82.1278C330.58 83.1526 330.428 84.3627 330.897 85.6464L331.556 85.4053L332.214 85.1649C331.896 84.2934 332.013 83.614 332.503 83.0144L331.959 82.5707ZM331.556 85.4053L330.897 85.6464C331.319 86.7986 332.149 88.3159 333.352 90.1787L333.942 89.7989L334.53 89.4183C333.342 87.5792 332.582 86.1674 332.214 85.1649L331.556 85.4053ZM333.942 89.7989L333.348 90.1709C334.515 92.0314 335.382 93.5988 335.958 94.8791L336.598 94.5921L337.237 94.3045C336.625 92.9436 335.721 91.3161 334.535 89.4263L333.942 89.7989ZM336.598 94.5921L335.961 94.8852C336.532 96.1219 336.802 97.4647 336.765 98.9234L337.466 98.9408L338.167 98.959C338.209 97.2981 337.9 95.7413 337.234 94.2984L336.598 94.5921ZM337.466 98.9408L336.765 98.9234C336.731 100.293 336.176 101.68 335.021 103.094L335.564 103.538L336.108 103.981C337.41 102.386 338.123 100.708 338.167 98.959L337.466 98.9408ZM335.564 103.538L335.021 103.094C333.932 104.429 332.609 105.349 331.043 105.872L331.265 106.536L331.487 107.201C333.314 106.592 334.857 105.513 336.108 103.981L335.564 103.538ZM331.265 106.536L331.033 105.875C329.5 106.412 327.823 106.487 325.982 106.074L325.829 106.758L325.676 107.441C327.738 107.904 329.685 107.832 331.497 107.198L331.265 106.536ZM325.829 106.758L325.982 106.074C324.157 105.664 322.335 104.733 320.513 103.248L320.069 103.79L319.626 104.333C321.581 105.927 323.597 106.974 325.676 107.441L325.829 106.758ZM360.395 96.0839L360.884 96.586L361.386 96.0972L360.897 95.5951L360.395 96.0839ZM337.132 118.736L336.631 119.226L337.12 119.727L337.621 119.238L337.132 118.736ZM331.611 113.072L331.122 112.57L330.62 113.059L331.109 113.56L331.611 113.072ZM354.873 90.4193L355.375 89.9304L354.886 89.4283L354.384 89.9172L354.873 90.4193ZM360.395 96.0839L359.905 95.5818L336.643 118.235L337.132 118.736L337.621 119.238L360.884 96.586L360.395 96.0839ZM337.132 118.736L337.635 118.247L332.113 112.583L331.611 113.072L331.109 113.56L336.631 119.226L337.132 118.736ZM331.611 113.072L332.1 113.574L355.362 90.9214L354.873 90.4193L354.384 89.9172L331.122 112.57L331.611 113.072ZM354.873 90.4193L354.371 90.9081L359.892 96.5726L360.395 96.0839L360.897 95.5951L355.375 89.9304L354.873 90.4193ZM379.694 120.152L380.125 120.704L380.678 120.274L380.247 119.721L379.694 120.152ZM374.696 124.048L374.143 124.478L374.575 125.031L375.127 124.6L374.696 124.048ZM369.404 117.264L369.957 116.833L369.525 116.281L368.973 116.711L369.404 117.264ZM348.791 133.33L348.239 133.761L348.669 134.313L349.222 133.882L348.791 133.33ZM343.926 127.093L343.495 126.541L342.942 126.971L343.373 127.524L343.926 127.093ZM364.538 111.028L364.97 111.58L365.522 111.149L365.091 110.597L364.538 111.028ZM359.246 104.244L358.815 103.691L358.262 104.123L358.693 104.675L359.246 104.244ZM364.244 100.348L364.797 99.9174L364.366 99.3653L363.813 99.7959L364.244 100.348ZM379.694 120.152L379.263 119.599L374.265 123.495L374.696 124.048L375.127 124.6L380.125 120.704L379.694 120.152ZM374.696 124.048L375.249 123.616L369.957 116.833L369.404 117.264L368.851 117.695L374.143 124.478L374.696 124.048ZM369.404 117.264L368.973 116.711L348.361 132.777L348.791 133.33L349.222 133.882L369.835 117.816L369.404 117.264ZM348.791 133.33L349.345 132.899L344.479 126.662L343.926 127.093L343.373 127.524L348.239 133.761L348.791 133.33ZM343.926 127.093L344.357 127.646L364.97 111.58L364.538 111.028L364.107 110.475L343.495 126.541L343.926 127.093ZM364.538 111.028L365.091 110.597L359.798 103.813L359.246 104.244L358.693 104.675L363.986 111.458L364.538 111.028ZM359.246 104.244L359.677 104.797L364.675 100.901L364.244 100.348L363.813 99.7959L358.815 103.691L359.246 104.244ZM364.244 100.348L363.692 100.779L379.142 120.582L379.694 120.152L380.247 119.721L364.797 99.9174L364.244 100.348ZM387.029 131.608L387.398 132.204L387.994 131.836L387.625 131.24L387.029 131.608ZM359.403 148.675L358.807 149.043L359.175 149.64L359.772 149.271L359.403 148.675ZM355.243 141.948L354.874 141.352L354.278 141.72L354.646 142.316L355.243 141.948ZM382.869 124.881L383.465 124.513L383.096 123.917L382.5 124.285L382.869 124.881ZM387.029 131.608L386.66 131.012L359.035 148.079L359.403 148.675L359.772 149.271L387.398 132.204L387.029 131.608ZM359.403 148.675L359.999 148.307L355.839 141.58L355.243 141.948L354.646 142.316L358.807 149.043L359.403 148.675ZM355.243 141.948L355.611 142.544L383.237 125.477L382.869 124.881L382.5 124.285L354.874 141.352L355.243 141.948ZM382.869 124.881L382.273 125.249L386.433 131.976L387.029 131.608L387.625 131.24L383.465 124.513L382.869 124.881ZM365.56 157.416L364.862 157.353L364.861 157.356L365.56 157.416ZM368.483 149.466L367.914 149.056L367.911 149.06L367.908 149.064L368.483 149.466ZM384.144 142.447L384.226 141.751L384.22 141.75L384.144 142.447ZM392.028 145.552L392.448 144.992L392.445 144.99L392.028 145.552ZM398.902 160.87L398.203 160.807L398.203 160.811L398.902 160.87ZM395.96 168.778L395.393 168.365L395.389 168.371L395.96 168.778ZM380.299 175.797L380.223 176.494L380.227 176.494L380.299 175.797ZM378.551 167.61L378.77 166.944L378.763 166.942L378.551 167.61ZM391.046 162.009L390.406 161.723L390.404 161.729L390.401 161.735L391.046 162.009ZM385.976 150.597L386.2 149.933L386.194 149.93L385.976 150.597ZM373.396 156.235L372.756 155.949L372.754 155.955L372.751 155.961L373.396 156.235ZM367.064 165.966L367.704 165.679C366.501 162.998 366.022 160.266 366.258 157.475L365.56 157.416L364.861 157.356C364.604 160.395 365.128 163.364 366.425 166.253L367.064 165.966ZM365.56 157.416L366.258 157.478C366.506 154.715 367.437 152.182 369.057 149.868L368.483 149.466L367.908 149.064C366.15 151.576 365.132 154.342 364.862 157.353L365.56 157.416ZM368.483 149.466L369.051 149.876C370.704 147.586 372.918 145.813 375.713 144.56L375.426 143.921L375.139 143.282C372.136 144.627 369.721 146.551 367.914 149.056L368.483 149.466ZM375.426 143.921L375.713 144.56C378.507 143.308 381.289 142.841 384.069 143.143L384.144 142.447L384.22 141.75C381.172 141.419 378.141 141.936 375.139 143.282L375.426 143.921ZM384.144 142.447L384.062 143.142C386.869 143.472 389.381 144.463 391.61 146.116L392.028 145.552L392.445 144.99C390.016 143.189 387.272 142.109 384.226 141.751L384.144 142.447ZM392.028 145.552L391.608 146.113C393.851 147.793 395.573 149.967 396.777 152.649L397.416 152.362L398.056 152.076C396.759 149.187 394.89 146.821 392.448 144.992L392.028 145.552ZM397.416 152.362L396.777 152.649C397.98 155.331 398.452 158.046 398.203 160.808L398.902 160.87L399.6 160.933C399.871 157.92 399.352 154.964 398.056 152.076L397.416 152.362ZM398.902 160.87L398.203 160.811C397.967 163.599 397.032 166.113 395.393 168.365L395.96 168.778L396.527 169.19C398.317 166.73 399.343 163.971 399.6 160.929L398.902 160.87ZM395.96 168.778L395.389 168.371C393.766 170.646 391.567 172.412 388.772 173.664L389.059 174.303L389.346 174.943C392.348 173.597 394.75 171.679 396.531 169.185L395.96 168.778ZM389.059 174.303L388.772 173.664C385.977 174.917 383.181 175.39 380.37 175.1L380.299 175.797L380.227 176.494C383.3 176.812 386.344 176.288 389.346 174.943L389.059 174.303ZM380.299 175.797L380.374 175.101C377.583 174.798 375.079 173.822 372.851 172.171L372.434 172.733L372.016 173.297C374.447 175.098 377.187 176.165 380.223 176.494L380.299 175.797ZM372.434 172.733L372.851 172.171C370.623 170.52 368.907 168.361 367.704 165.679L367.064 165.966L366.425 166.253C367.721 169.141 369.585 171.494 372.016 173.297L372.434 172.733ZM373.65 163.014L373.01 163.301C374.141 165.822 375.918 167.509 378.339 168.278L378.551 167.61L378.763 166.942C376.77 166.31 375.279 164.933 374.289 162.728L373.65 163.014ZM378.551 167.61L378.333 168.275C380.752 169.069 383.339 168.817 386.051 167.6L385.764 166.961L385.478 166.322C383.012 167.427 380.789 167.606 378.77 166.944L378.551 167.61ZM385.764 166.961L386.051 167.6C388.789 166.373 390.703 164.61 391.692 162.283L391.046 162.009L390.401 161.735C389.582 163.664 387.974 165.203 385.478 166.322L385.764 166.961ZM391.046 162.009L391.686 162.295C392.723 159.977 392.644 157.529 391.513 155.008L390.873 155.295L390.233 155.582C391.223 157.787 391.259 159.815 390.406 161.723L391.046 162.009ZM390.873 155.295L391.513 155.008C390.371 152.465 388.602 150.745 386.2 149.933L385.976 150.597L385.751 151.26C387.733 151.93 389.228 153.342 390.233 155.582L390.873 155.295ZM385.976 150.597L386.194 149.93C383.809 149.15 381.213 149.429 378.452 150.667L378.739 151.306L379.026 151.945C381.556 150.811 383.785 150.617 385.758 151.262L385.976 150.597ZM378.739 151.306L378.452 150.667C375.717 151.893 373.787 153.644 372.756 155.949L373.396 156.235L374.036 156.521C374.895 154.6 376.527 153.066 379.026 151.945L378.739 151.306ZM373.396 156.235L372.751 155.961C371.76 158.294 371.869 160.758 373.01 163.301L373.65 163.014L374.289 162.728C373.284 160.489 373.224 158.433 374.041 156.509L373.396 156.235ZM381.075 210.45L380.393 210.611L380.553 211.293L381.236 211.133L381.075 210.45ZM379.264 202.753L378.754 202.272L378.495 202.546L378.581 202.913L379.264 202.753ZM395.735 185.295L396.245 185.776L397.846 184.079L395.575 184.613L395.735 185.295ZM376.234 189.877L375.552 190.038L375.712 190.719L376.395 190.559L376.234 189.877ZM374.423 182.179L374.262 181.497L373.58 181.657L373.74 182.339L374.423 182.179ZM406.039 174.75L406.721 174.59L406.561 173.908L405.878 174.068L406.039 174.75ZM407.85 182.449L408.359 182.931L408.619 182.656L408.533 182.288L407.85 182.449ZM391.289 199.927L390.78 199.445L389.169 201.145L391.449 200.609L391.289 199.927ZM410.88 195.324L411.562 195.164L411.402 194.481L410.719 194.642L410.88 195.324ZM412.691 203.022L412.852 203.704L413.534 203.544L413.374 202.862L412.691 203.022ZM381.075 210.45L381.758 210.29L379.946 202.592L379.264 202.753L378.581 202.913L380.393 210.611L381.075 210.45ZM379.264 202.753L379.774 203.233L396.245 185.776L395.735 185.295L395.225 184.814L378.754 202.272L379.264 202.753ZM395.735 185.295L395.575 184.613L376.074 189.195L376.234 189.877L376.395 190.559L395.896 185.977L395.735 185.295ZM376.234 189.877L376.917 189.717L375.105 182.018L374.423 182.179L373.74 182.339L375.552 190.038L376.234 189.877ZM374.423 182.179L374.583 182.861L406.199 175.433L406.039 174.75L405.878 174.068L374.262 181.497L374.423 182.179ZM406.039 174.75L405.356 174.911L407.168 182.609L407.85 182.449L408.533 182.288L406.721 174.59L406.039 174.75ZM407.85 182.449L407.341 181.967L390.78 199.445L391.289 199.927L391.798 200.409L408.359 182.931L407.85 182.449ZM391.289 199.927L391.449 200.609L411.041 196.006L410.88 195.324L410.719 194.642L391.128 199.245L391.289 199.927ZM410.88 195.324L410.198 195.484L412.009 203.182L412.691 203.022L413.374 202.862L411.562 195.164L410.88 195.324ZM412.691 203.022L412.531 202.34L380.915 209.769L381.075 210.45L381.236 211.133L412.852 203.704L412.691 203.022Z" fill="#FFC700"/>
</g>
</g>
<defs>
<clipPath id="clip0_487_1248">
<rect width="250" height="415" fill="white" transform="translate(450.473 68.2695) rotate(99.4684)"/>
</clipPath>
</defs>
</svg>
