<svg width="441" height="592" viewBox="0 0 441 592" fill="none" xmlns="http://www.w3.org/2000/svg">
<mask id="path-1-outside-1_361_228" maskUnits="userSpaceOnUse" x="77.6346" y="3.95334" width="599.386" height="606.552" fill="black">
<rect fill="white" x="77.6346" y="3.95334" width="599.386" height="606.552"/>
<path d="M366.099 559.038L397.454 521.175L410.718 526.028L410.229 575.186L398.949 571.058L400.185 534.262L377.318 563.143L366.099 559.038ZM352.801 507.46L367.694 516.247L374.24 510.607L384.415 516.61L346.433 547.995L335.178 541.355L344.284 492.932L354.573 499.002L352.801 507.46ZM350.875 516.439L347.201 533.965L360.709 522.241L350.875 516.439ZM328.934 491.494L317.479 482.149L322.985 475.398L343.187 491.877L313.9 527.779L305.155 520.645L328.934 491.494ZM280.026 496.982L300.485 478.278C302.531 476.408 303.646 474.464 303.829 472.448C304.013 470.432 303.214 468.45 301.433 466.502C299.652 464.553 297.734 463.564 295.68 463.534C293.625 463.505 291.575 464.425 289.53 466.295L269.071 484.999L261.456 476.67L281.866 458.01C284.918 455.219 288.094 453.509 291.392 452.878C294.69 452.247 297.885 452.546 300.975 453.774C304.036 454.97 306.799 456.916 309.263 459.611C311.727 462.307 313.419 465.201 314.34 468.294C315.198 471.385 315.135 474.512 314.153 477.676C313.138 480.869 311.104 483.862 308.051 486.652L287.642 505.312L280.026 496.982ZM255.729 453.321L263.523 448.116L255.129 435.547L262.373 430.709L270.768 443.277L279.22 437.632L269.726 423.417L277.245 418.395L293.007 441.995L254.479 467.728L238.716 444.128L246.235 439.106L255.729 453.321ZM222.74 369.23C225.272 368.34 227.801 368.104 230.326 368.522C232.81 368.955 235.119 370.149 237.252 372.104C239.385 374.059 241.079 376.822 242.334 380.392L244.654 386.992L260.345 381.476L264.088 392.124L220.377 407.489L214.315 390.241C213.089 386.754 212.655 383.595 213.012 380.765C213.37 377.934 214.396 375.545 216.089 373.597C217.783 371.649 220 370.193 222.74 369.23ZM234.15 384.178C233.435 382.144 232.426 380.797 231.121 380.136C229.816 379.475 228.292 379.451 226.548 380.064C224.805 380.677 223.631 381.649 223.026 382.981C222.422 384.313 222.477 385.996 223.192 388.03L225.227 393.821L236.186 389.969L234.15 384.178ZM247.787 333.452L232.301 346.06L232.785 348.722L249.993 345.595L252.011 356.7L206.425 364.983L203.039 346.346C202.386 342.753 202.459 339.587 203.258 336.848C204.05 334.065 205.435 331.846 207.415 330.189C209.351 328.541 211.662 327.472 214.346 326.985C217.376 326.434 220.239 326.808 222.935 328.107C225.622 329.363 227.767 331.567 229.368 334.72L245.509 320.92L247.787 333.452ZM224.928 350.15L223.677 343.267C223.307 341.232 222.534 339.807 221.357 338.993C220.173 338.135 218.671 337.871 216.853 338.201C215.122 338.516 213.852 339.283 213.045 340.503C212.231 341.68 212.008 343.285 212.378 345.32L213.629 352.203L224.928 350.15ZM245.839 296.521C245.848 300.877 244.844 304.883 242.827 308.539C240.81 312.151 238 315.039 234.396 317.202C230.748 319.321 226.658 320.385 222.126 320.394C217.594 320.403 213.522 319.355 209.91 317.25C206.298 315.101 203.476 312.224 201.445 308.62C199.414 304.972 198.394 300.97 198.386 296.614C198.377 292.258 199.381 288.274 201.398 284.662C203.415 281.006 206.225 278.141 209.829 276.066C213.433 273.947 217.501 272.883 222.033 272.874C226.565 272.865 230.659 273.913 234.315 276.018C237.927 278.123 240.749 280.977 242.78 284.581C244.811 288.185 245.831 292.165 245.839 296.521ZM235.543 296.541C235.536 292.845 234.298 289.9 231.83 287.705C229.362 285.465 226.104 284.35 222.056 284.358C217.964 284.366 214.71 285.494 212.294 287.743C209.834 289.948 208.608 292.898 208.616 296.594C208.623 300.334 209.839 303.324 212.263 305.563C214.687 307.758 217.968 308.852 222.104 308.844C226.196 308.836 229.471 307.729 231.931 305.524C234.347 303.276 235.551 300.281 235.543 296.541ZM220.751 230.554C223.396 231.012 225.718 232.04 227.719 233.636C229.677 235.225 231.11 237.394 232.019 240.141C232.928 242.888 233.059 246.126 232.414 249.855L231.221 256.748L247.609 259.585L245.684 270.706L200.031 262.803L203.149 244.789C203.78 241.147 204.941 238.178 206.634 235.881C208.326 233.584 210.387 231.998 212.816 231.123C215.244 230.249 217.89 230.059 220.751 230.554ZM223.423 249.169C223.791 247.045 223.566 245.376 222.749 244.163C221.932 242.95 220.613 242.185 218.792 241.87C216.971 241.555 215.472 241.831 214.295 242.699C213.118 243.567 212.345 245.063 211.977 247.188L210.93 253.236L222.376 255.217L223.423 249.169ZM260.21 213.795C258.735 217.894 256.427 221.318 253.286 224.069C250.16 226.779 246.534 228.537 242.41 229.344C238.258 230.095 234.05 229.703 229.786 228.168C225.522 226.634 222.05 224.262 219.37 221.053C216.705 217.803 215.031 214.137 214.349 210.057C213.681 205.935 214.084 201.825 215.559 197.727C217.034 193.628 219.335 190.224 222.461 187.514C225.602 184.763 229.22 183.026 233.315 182.302C237.425 181.536 241.612 181.921 245.877 183.455C250.141 184.99 253.634 187.369 256.355 190.593C259.034 193.802 260.716 197.446 261.398 201.526C262.081 205.607 261.685 209.696 260.21 213.795ZM250.522 210.309C251.774 206.831 251.613 203.64 250.039 200.735C248.481 197.79 245.797 195.631 241.988 194.261C238.138 192.875 234.694 192.828 231.657 194.12C228.594 195.356 226.436 197.713 225.185 201.191C223.919 204.71 224.044 207.935 225.561 210.865C227.093 213.755 229.805 215.9 233.697 217.3C237.547 218.686 241.004 218.761 244.067 217.525C247.104 216.233 249.256 213.828 250.522 210.309ZM277.569 175.154C275.888 178.095 273.904 180.458 271.617 182.242C269.33 184.027 266.847 185.091 264.167 185.434C261.509 185.74 258.84 185.178 256.161 183.747L262.121 173.319C263.698 174.017 265.139 174.157 266.444 173.736C267.71 173.295 268.747 172.367 269.555 170.953C270.384 169.502 270.715 168.17 270.546 166.959C270.338 165.725 269.643 164.77 268.458 164.093C267.465 163.526 266.447 163.4 265.405 163.716C264.384 163.995 263.38 164.51 262.392 165.263C261.426 165.978 260.163 167.08 258.602 168.57C256.315 170.709 254.301 172.371 252.56 173.555C250.819 174.739 248.827 175.476 246.584 175.765C244.34 176.054 241.958 175.478 239.437 174.037C235.693 171.897 233.546 168.871 232.995 164.958C232.406 161.023 233.356 156.878 235.845 152.523C238.378 148.092 241.489 145.131 245.178 143.642C248.829 142.13 252.601 142.36 256.492 144.33L250.433 154.931C249.09 154.265 247.805 154.164 246.577 154.628C245.311 155.07 244.285 155.978 243.499 157.354C242.822 158.538 242.601 159.679 242.836 160.776C243.032 161.851 243.722 162.727 244.906 163.404C246.205 164.146 247.567 164.113 248.991 163.306C250.416 162.498 252.291 161.036 254.616 158.918C256.979 156.823 259.02 155.202 260.74 154.056C262.481 152.872 264.454 152.124 266.658 151.814C268.863 151.503 271.169 152.035 273.576 153.411C275.868 154.721 277.611 156.503 278.806 158.757C280.023 160.972 280.552 163.505 280.394 166.354C280.235 169.202 279.294 172.136 277.569 175.154ZM257.253 120.222L294.603 147.638L287.925 156.736L250.575 129.32L257.253 120.222ZM286.603 87.4179L293.261 93.5364L284.954 102.575L312.41 127.808L304.773 136.118L277.317 110.885L269.01 119.923L262.352 113.805L286.603 87.4179ZM301.009 74.4091L331.521 109.276L323.027 116.708L292.516 81.8414L301.009 74.4091ZM354.063 94.4382C350.436 96.8503 346.541 98.2247 342.38 98.5615C338.254 98.874 334.295 98.125 330.502 96.3144C326.721 94.4429 323.576 91.6202 321.067 87.8465C318.557 84.0727 317.183 80.0989 316.944 75.925C316.741 71.7268 317.582 67.7861 319.465 64.1028C321.385 60.3952 324.159 57.3354 327.786 54.9234C331.414 52.5114 335.29 51.1491 339.415 50.8366C343.577 50.4998 347.518 51.261 351.237 53.1203C354.994 54.9552 358.127 57.7595 360.636 61.5333C363.146 65.3071 364.532 69.2992 364.796 73.5097C365.035 77.6836 364.213 81.6121 362.329 85.2953C360.446 88.9786 357.69 92.0262 354.063 94.4382ZM348.362 85.8648C351.44 83.8182 353.212 81.1599 353.68 77.89C354.184 74.5956 353.315 71.2631 351.074 67.8923C348.808 64.4849 346.071 62.3949 342.862 61.6224C339.666 60.7888 336.529 61.3953 333.451 63.4419C330.337 65.5128 328.515 68.1771 327.987 71.4348C327.495 74.6682 328.394 78.0069 330.684 81.4509C332.95 84.8583 335.681 86.9788 338.878 87.8123C342.086 88.5849 345.248 87.9357 348.362 85.8648ZM413.396 64.2847L402.985 68.6401L374.542 49.5603L385.571 75.9246L375.159 80.28L357.279 37.537L367.691 33.1816L396.184 52.3832L385.105 25.8972L395.516 21.5418L413.396 64.2847Z"/>
</mask>
<path d="M366.099 559.038L365.329 558.4L364.426 559.491L365.756 559.977L366.099 559.038ZM397.454 521.175L397.797 520.236L397.134 519.993L396.684 520.537L397.454 521.175ZM410.718 526.028L411.718 526.038L411.725 525.332L411.061 525.089L410.718 526.028ZM410.229 575.186L409.886 576.125L411.215 576.612L411.229 575.196L410.229 575.186ZM398.949 571.058L397.95 571.025L397.925 571.749L398.605 571.998L398.949 571.058ZM400.185 534.262L401.184 534.296L401.286 531.26L399.401 533.642L400.185 534.262ZM377.318 563.143L376.974 564.082L377.653 564.331L378.102 563.764L377.318 563.143ZM366.099 559.038L366.869 559.676L398.224 521.813L397.454 521.175L396.684 520.537L365.329 558.4L366.099 559.038ZM397.454 521.175L397.11 522.114L410.374 526.967L410.718 526.028L411.061 525.089L397.797 520.236L397.454 521.175ZM410.718 526.028L409.718 526.018L409.229 575.176L410.229 575.186L411.229 575.196L411.718 526.038L410.718 526.028ZM410.229 575.186L410.573 574.247L399.293 570.119L398.949 571.058L398.605 571.998L409.886 576.125L410.229 575.186ZM398.949 571.058L399.948 571.092L401.184 534.296L400.185 534.262L399.185 534.229L397.95 571.025L398.949 571.058ZM400.185 534.262L399.401 533.642L376.534 562.522L377.318 563.143L378.102 563.764L400.969 534.883L400.185 534.262ZM377.318 563.143L377.661 562.204L366.443 558.099L366.099 559.038L365.756 559.977L376.974 564.082L377.318 563.143ZM352.801 507.459L351.822 507.254L351.675 507.956L352.293 508.321L352.801 507.459ZM367.694 516.247L367.186 517.108L367.803 517.472L368.347 517.004L367.694 516.247ZM374.24 510.607L374.748 509.746L374.131 509.381L373.588 509.849L374.24 510.607ZM384.415 516.61L385.052 517.381L386.151 516.473L384.923 515.749L384.415 516.61ZM346.433 547.995L345.925 548.857L346.529 549.213L347.07 548.766L346.433 547.995ZM335.178 541.355L334.195 541.17L334.065 541.859L334.67 542.216L335.178 541.355ZM344.284 492.932L344.792 492.071L343.565 491.346L343.301 492.747L344.284 492.932ZM354.573 499.002L355.551 499.207L355.698 498.505L355.081 498.141L354.573 499.002ZM350.875 516.439L351.383 515.577L350.182 514.869L349.896 516.233L350.875 516.439ZM347.201 533.965L346.222 533.76L345.613 536.668L347.856 534.72L347.201 533.965ZM360.709 522.241L361.364 522.996L362.414 522.085L361.217 521.38L360.709 522.241ZM352.801 507.459L352.293 508.321L367.186 517.108L367.694 516.247L368.202 515.385L353.309 506.598L352.801 507.459ZM367.694 516.247L368.347 517.004L374.893 511.364L374.24 510.607L373.588 509.849L367.041 515.489L367.694 516.247ZM374.24 510.607L373.732 511.468L383.907 517.472L384.415 516.61L384.923 515.749L374.748 509.746L374.24 510.607ZM384.415 516.61L383.778 515.839L345.796 547.224L346.433 547.995L347.07 548.766L385.052 517.381L384.415 516.61ZM346.433 547.995L346.941 547.134L335.686 540.493L335.178 541.355L334.67 542.216L345.925 548.857L346.433 547.995ZM335.178 541.355L336.161 541.539L345.267 493.117L344.284 492.932L343.301 492.747L334.195 541.17L335.178 541.355ZM344.284 492.932L343.776 493.793L354.064 499.864L354.573 499.002L355.081 498.141L344.792 492.071L344.284 492.932ZM354.573 499.002L353.594 498.797L351.822 507.254L352.801 507.459L353.78 507.665L355.551 499.207L354.573 499.002ZM350.875 516.439L349.896 516.233L346.222 533.76L347.201 533.965L348.18 534.17L351.854 516.644L350.875 516.439ZM347.201 533.965L347.856 534.72L361.364 522.996L360.709 522.241L360.053 521.486L346.545 533.21L347.201 533.965ZM360.709 522.241L361.217 521.38L351.383 515.577L350.875 516.439L350.367 517.3L360.201 523.102L360.709 522.241ZM328.934 491.494L329.709 492.126L330.341 491.351L329.567 490.719L328.934 491.494ZM317.479 482.149L316.704 481.517L316.072 482.292L316.846 482.924L317.479 482.149ZM322.985 475.398L323.617 474.623L322.843 473.991L322.21 474.766L322.985 475.398ZM343.187 491.877L343.962 492.509L344.594 491.734L343.819 491.102L343.187 491.877ZM313.9 527.779L313.268 528.554L314.043 529.186L314.675 528.411L313.9 527.779ZM305.155 520.645L304.38 520.013L303.748 520.788L304.523 521.42L305.155 520.645ZM328.934 491.494L329.567 490.719L318.111 481.374L317.479 482.149L316.846 482.924L328.302 492.269L328.934 491.494ZM317.479 482.149L318.253 482.781L323.76 476.03L322.985 475.398L322.21 474.766L316.704 481.517L317.479 482.149ZM322.985 475.398L322.353 476.173L342.555 492.652L343.187 491.877L343.819 491.102L323.617 474.623L322.985 475.398ZM343.187 491.877L342.412 491.245L313.125 527.147L313.9 527.779L314.675 528.411L343.962 492.509L343.187 491.877ZM313.9 527.779L314.532 527.004L305.787 519.87L305.155 520.645L304.523 521.42L313.268 528.554L313.9 527.779ZM305.155 520.645L305.93 521.277L329.709 492.126L328.934 491.494L328.16 490.862L304.38 520.013L305.155 520.645ZM280.026 496.982L279.352 496.244L278.613 496.919L279.288 497.657L280.026 496.982ZM303.829 472.448L304.825 472.539V472.539L303.829 472.448ZM295.68 463.534L295.694 462.534V462.534L295.68 463.534ZM289.53 466.295L288.855 465.557L289.53 466.295ZM269.071 484.999L268.333 485.674L269.008 486.412L269.746 485.737L269.071 484.999ZM261.456 476.67L260.781 475.932L260.043 476.607L260.718 477.345L261.456 476.67ZM291.392 452.878L291.204 451.896V451.896L291.392 452.878ZM300.975 453.774L300.606 454.704L300.611 454.706L300.975 453.774ZM314.34 468.294L315.303 468.027L315.301 468.018L315.298 468.009L314.34 468.294ZM314.153 477.676L315.106 477.979L315.108 477.972L314.153 477.676ZM287.642 505.312L286.904 505.987L287.578 506.725L288.316 506.05L287.642 505.312ZM280.026 496.982L280.701 497.72L301.16 479.016L300.485 478.278L299.81 477.54L279.352 496.244L280.026 496.982ZM300.485 478.278L301.16 479.016C303.321 477.04 304.612 474.883 304.825 472.539L303.829 472.448L302.833 472.358C302.679 474.046 301.741 475.775 299.81 477.54L300.485 478.278ZM303.829 472.448L304.825 472.539C305.042 470.164 304.081 467.916 302.171 465.827L301.433 466.502L300.695 467.176C302.347 468.984 302.984 470.7 302.833 472.358L303.829 472.448ZM301.433 466.502L302.171 465.827C300.26 463.736 298.097 462.569 295.694 462.534L295.68 463.534L295.665 464.534C297.37 464.559 299.044 465.37 300.695 467.176L301.433 466.502ZM295.68 463.534L295.694 462.534C293.307 462.5 291.022 463.576 288.855 465.557L289.53 466.295L290.204 467.033C292.129 465.274 293.944 464.509 295.665 464.534L295.68 463.534ZM289.53 466.295L288.855 465.557L268.396 484.261L269.071 484.999L269.746 485.737L290.204 467.033L289.53 466.295ZM269.071 484.999L269.809 484.325L262.194 475.995L261.456 476.67L260.718 477.345L268.333 485.674L269.071 484.999ZM261.456 476.67L262.13 477.408L282.54 458.748L281.866 458.01L281.191 457.272L260.781 475.932L261.456 476.67ZM281.866 458.01L282.54 458.748C285.488 456.054 288.501 454.449 291.58 453.86L291.392 452.878L291.204 451.896C287.686 452.569 284.348 454.385 281.191 457.272L281.866 458.01ZM291.392 452.878L291.58 453.86C294.693 453.265 297.694 453.546 300.606 454.704L300.975 453.774L301.345 452.845C298.075 451.546 294.688 451.229 291.204 451.896L291.392 452.878ZM300.975 453.774L300.611 454.706C303.514 455.84 306.152 457.691 308.525 460.286L309.263 459.611L310.001 458.937C307.445 456.141 304.558 454.101 301.339 452.843L300.975 453.774ZM309.263 459.611L308.525 460.286C310.9 462.885 312.509 465.649 313.381 468.58L314.34 468.294L315.298 468.009C314.329 464.753 312.554 461.729 310.001 458.937L309.263 459.611ZM314.34 468.294L313.376 468.562C314.181 471.461 314.126 474.392 313.198 477.379L314.153 477.676L315.108 477.972C316.145 474.632 316.214 471.309 315.303 468.027L314.34 468.294ZM314.153 477.676L313.2 477.373C312.249 480.365 310.33 483.214 307.377 485.914L308.051 486.652L308.726 487.39C311.878 484.509 314.027 481.374 315.106 477.979L314.153 477.676ZM308.051 486.652L307.377 485.914L286.967 504.574L287.642 505.312L288.316 506.05L308.726 487.39L308.051 486.652ZM287.642 505.312L288.38 504.637L280.764 496.308L280.026 496.982L279.288 497.657L286.904 505.987L287.642 505.312ZM255.729 453.321L254.898 453.877L255.453 454.708L256.285 454.153L255.729 453.321ZM263.523 448.116L264.078 448.947L264.91 448.392L264.355 447.561L263.523 448.116ZM255.128 435.547L254.573 434.716L253.742 435.271L254.297 436.103L255.128 435.547ZM262.373 430.709L263.205 430.153L262.649 429.322L261.818 429.877L262.373 430.709ZM270.768 443.277L269.936 443.833L270.491 444.664L271.323 444.109L270.768 443.277ZM279.22 437.632L279.775 438.464L280.607 437.908L280.051 437.077L279.22 437.632ZM269.726 423.417L269.17 422.585L268.339 423.141L268.894 423.972L269.726 423.417ZM277.245 418.395L278.076 417.84L277.521 417.008L276.689 417.563L277.245 418.395ZM293.007 441.995L293.563 442.827L294.394 442.271L293.839 441.44L293.007 441.995ZM254.479 467.728L253.647 468.284L254.202 469.115L255.034 468.56L254.479 467.728ZM238.716 444.128L238.161 443.297L237.329 443.852L237.885 444.684L238.716 444.128ZM246.235 439.106L247.067 438.551L246.511 437.719L245.68 438.275L246.235 439.106ZM255.729 453.321L256.285 454.153L264.078 448.947L263.523 448.116L262.968 447.284L255.174 452.49L255.729 453.321ZM263.523 448.116L264.355 447.561L255.96 434.992L255.128 435.547L254.297 436.103L262.691 448.671L263.523 448.116ZM255.128 435.547L255.684 436.379L262.929 431.54L262.373 430.709L261.818 429.877L254.573 434.716L255.128 435.547ZM262.373 430.709L261.542 431.264L269.936 443.833L270.768 443.277L271.599 442.722L263.205 430.153L262.373 430.709ZM270.768 443.277L271.323 444.109L279.775 438.464L279.22 437.632L278.664 436.8L270.212 442.446L270.768 443.277ZM279.22 437.632L280.051 437.077L270.557 422.862L269.726 423.417L268.894 423.972L278.388 438.187L279.22 437.632ZM269.726 423.417L270.281 424.249L277.8 419.227L277.245 418.395L276.689 417.563L269.17 422.585L269.726 423.417ZM277.245 418.395L276.413 418.95L292.176 442.551L293.007 441.995L293.839 441.44L278.076 417.84L277.245 418.395ZM293.007 441.995L292.452 441.164L253.923 466.897L254.479 467.728L255.034 468.56L293.563 442.827L293.007 441.995ZM254.479 467.728L255.31 467.173L239.548 443.573L238.716 444.128L237.885 444.684L253.647 468.284L254.479 467.728ZM238.716 444.128L239.272 444.96L246.791 439.938L246.235 439.106L245.68 438.275L238.161 443.297L238.716 444.128ZM246.235 439.106L245.404 439.662L254.898 453.877L255.729 453.321L256.561 452.766L247.067 438.551L246.235 439.106ZM230.326 368.522L230.498 367.537L230.49 367.536L230.326 368.522ZM237.252 372.104L236.576 372.841V372.841L237.252 372.104ZM244.654 386.992L243.711 387.324L244.042 388.267L244.986 387.935L244.654 386.992ZM260.345 381.476L261.288 381.145L260.957 380.201L260.013 380.533L260.345 381.476ZM264.088 392.124L264.419 393.067L265.363 392.735L265.031 391.792L264.088 392.124ZM220.377 407.489L219.434 407.82L219.766 408.764L220.709 408.432L220.377 407.489ZM214.315 390.241L213.371 390.573L214.315 390.241ZM213.012 380.765L212.02 380.639V380.639L213.012 380.765ZM231.121 380.136L231.572 379.244L231.121 380.136ZM223.192 388.03L222.248 388.362L223.192 388.03ZM225.227 393.821L224.284 394.152L224.616 395.096L225.559 394.764L225.227 393.821ZM236.186 389.969L236.518 390.912L237.461 390.58L237.129 389.637L236.186 389.969ZM222.74 369.23L223.071 370.174C225.453 369.336 227.811 369.119 230.163 369.509L230.326 368.522L230.49 367.536C227.79 367.089 225.091 367.344 222.408 368.287L222.74 369.23ZM230.326 368.522L230.155 369.507C232.424 369.903 234.563 370.996 236.576 372.841L237.252 372.104L237.928 371.367C235.675 369.302 233.197 368.007 230.498 367.537L230.326 368.522ZM237.252 372.104L236.576 372.841C238.557 374.657 240.174 377.263 241.391 380.723L242.334 380.392L243.277 380.06C241.984 376.381 240.214 373.462 237.928 371.367L237.252 372.104ZM242.334 380.392L241.391 380.723L243.711 387.324L244.654 386.992L245.597 386.66L243.277 380.06L242.334 380.392ZM244.654 386.992L244.986 387.935L260.676 382.42L260.345 381.476L260.013 380.533L244.322 386.049L244.654 386.992ZM260.345 381.476L259.401 381.808L263.144 392.455L264.088 392.124L265.031 391.792L261.288 381.145L260.345 381.476ZM264.088 392.124L263.756 391.18L220.046 406.545L220.377 407.489L220.709 408.432L264.419 393.067L264.088 392.124ZM220.377 407.489L221.321 407.157L215.258 389.909L214.315 390.241L213.371 390.573L219.434 407.82L220.377 407.489ZM214.315 390.241L215.258 389.909C214.069 386.527 213.671 383.528 214.005 380.89L213.012 380.765L212.02 380.639C211.638 383.663 212.109 386.981 213.371 390.573L214.315 390.241ZM213.012 380.765L214.005 380.89C214.34 378.234 215.294 376.036 216.844 374.253L216.089 373.597L215.335 372.94C213.497 375.054 212.4 377.634 212.02 380.639L213.012 380.765ZM216.089 373.597L216.844 374.253C218.411 372.451 220.474 371.086 223.071 370.174L222.74 369.23L222.408 368.287C219.526 369.3 217.156 370.846 215.335 372.94L216.089 373.597ZM234.15 384.178L235.094 383.846C234.333 381.683 233.196 380.066 231.572 379.244L231.121 380.136L230.669 381.028C231.655 381.527 232.538 382.605 233.207 384.51L234.15 384.178ZM231.121 380.136L231.572 379.244C229.964 378.429 228.145 378.443 226.216 379.121L226.548 380.064L226.88 381.008C228.438 380.46 229.668 380.521 230.669 381.028L231.121 380.136ZM226.548 380.064L226.216 379.121C224.288 379.799 222.861 380.926 222.116 382.568L223.026 382.981L223.937 383.395C224.401 382.373 225.322 381.555 226.88 381.008L226.548 380.064ZM223.026 382.981L222.116 382.568C221.363 384.226 221.488 386.198 222.248 388.362L223.192 388.03L224.135 387.698C223.466 385.794 223.48 384.401 223.937 383.395L223.026 382.981ZM223.192 388.03L222.248 388.362L224.284 394.152L225.227 393.821L226.171 393.489L224.135 387.698L223.192 388.03ZM225.227 393.821L225.559 394.764L236.518 390.912L236.186 389.969L235.854 389.025L224.896 392.877L225.227 393.821ZM236.186 389.969L237.129 389.637L235.094 383.846L234.15 384.178L233.207 384.51L235.243 390.3L236.186 389.969ZM247.787 333.452L248.418 334.228L248.876 333.855L248.771 333.274L247.787 333.452ZM232.301 346.06L231.67 345.284L231.212 345.657L231.317 346.239L232.301 346.06ZM232.785 348.722L231.801 348.901L231.98 349.885L232.964 349.706L232.785 348.722ZM249.993 345.595L250.977 345.417L250.798 344.433L249.814 344.612L249.993 345.595ZM252.011 356.7L252.19 357.684L253.174 357.505L252.995 356.521L252.011 356.7ZM206.425 364.983L205.441 365.162L205.62 366.146L206.604 365.967L206.425 364.983ZM203.258 336.848L204.218 337.128L204.22 337.121L203.258 336.848ZM207.415 330.189L208.057 330.956L208.063 330.951L207.415 330.189ZM214.346 326.985L214.167 326.001L214.346 326.985ZM222.935 328.107L222.501 329.008L222.511 329.013L222.935 328.107ZM229.368 334.72L228.477 335.172L229.052 336.305L230.018 335.48L229.368 334.72ZM245.509 320.92L246.493 320.741L246.182 319.029L244.86 320.159L245.509 320.92ZM224.928 350.15L225.106 351.134L226.09 350.955L225.911 349.971L224.928 350.15ZM223.677 343.267L222.693 343.446L223.677 343.267ZM221.357 338.993L220.771 339.802L220.779 339.809L220.788 339.815L221.357 338.993ZM216.853 338.201L216.674 337.217L216.853 338.201ZM213.045 340.503L213.868 341.072L213.874 341.063L213.88 341.055L213.045 340.503ZM212.378 345.32L211.394 345.499L212.378 345.32ZM213.629 352.203L212.645 352.382L212.823 353.366L213.807 353.187L213.629 352.203ZM247.787 333.452L247.155 332.677L231.67 345.284L232.301 346.06L232.932 346.835L248.418 334.228L247.787 333.452ZM232.301 346.06L231.317 346.239L231.801 348.901L232.785 348.722L233.769 348.544L233.285 345.881L232.301 346.06ZM232.785 348.722L232.964 349.706L250.172 346.579L249.993 345.595L249.814 344.612L232.606 347.738L232.785 348.722ZM249.993 345.595L249.009 345.774L251.027 356.878L252.011 356.7L252.995 356.521L250.977 345.417L249.993 345.595ZM252.011 356.7L251.832 355.716L206.247 363.999L206.425 364.983L206.604 365.967L252.19 357.684L252.011 356.7ZM206.425 364.983L207.409 364.804L204.023 346.167L203.039 346.346L202.055 346.525L205.441 365.162L206.425 364.983ZM203.039 346.346L204.023 346.167C203.39 342.685 203.473 339.682 204.218 337.128L203.258 336.848L202.298 336.568C201.445 339.491 201.382 342.82 202.055 346.525L203.039 346.346ZM203.258 336.848L204.22 337.121C204.964 334.508 206.249 332.469 208.057 330.956L207.415 330.189L206.773 329.422C204.621 331.223 203.136 333.623 202.296 336.574L203.258 336.848ZM207.415 330.189L208.063 330.951C209.856 329.425 212.001 328.427 214.524 327.969L214.346 326.985L214.167 326.001C211.322 326.518 208.847 327.657 206.767 329.428L207.415 330.189ZM214.346 326.985L214.524 327.969C217.353 327.455 220.001 327.804 222.501 329.008L222.935 328.107L223.369 327.206C220.477 325.813 217.399 325.414 214.167 326.001L214.346 326.985ZM222.935 328.107L222.511 329.013C224.96 330.157 226.957 332.179 228.477 335.172L229.368 334.72L230.26 334.267C228.578 330.955 226.285 328.569 223.358 327.201L222.935 328.107ZM229.368 334.72L230.018 335.48L246.159 321.68L245.509 320.92L244.86 320.159L228.719 333.959L229.368 334.72ZM245.509 320.92L244.525 321.098L246.803 333.631L247.787 333.452L248.771 333.274L246.493 320.741L245.509 320.92ZM224.928 350.15L225.911 349.971L224.661 343.088L223.677 343.267L222.693 343.446L223.944 350.329L224.928 350.15ZM223.677 343.267L224.661 343.088C224.265 340.909 223.402 339.192 221.927 338.17L221.357 338.993L220.788 339.815C221.666 340.422 222.349 341.555 222.693 343.446L223.677 343.267ZM221.357 338.993L221.944 338.183C220.484 337.125 218.686 336.852 216.674 337.217L216.853 338.201L217.032 339.185C218.657 338.89 219.862 339.144 220.771 339.802L221.357 338.993ZM216.853 338.201L216.674 337.217C214.733 337.57 213.199 338.459 212.211 339.951L213.045 340.503L213.88 341.055C214.506 340.107 215.51 339.462 217.032 339.185L216.853 338.201ZM213.045 340.503L212.223 339.934C211.201 341.409 210.998 343.319 211.394 345.499L212.378 345.32L213.362 345.141C213.018 343.251 213.26 341.95 213.868 341.072L213.045 340.503ZM212.378 345.32L211.394 345.499L212.645 352.382L213.629 352.203L214.612 352.024L213.362 345.141L212.378 345.32ZM213.629 352.203L213.807 353.187L225.106 351.134L224.928 350.15L224.749 349.166L213.45 351.219L213.629 352.203ZM245.839 296.521L244.839 296.523L245.839 296.521ZM242.827 308.539L243.7 309.027L243.703 309.022L242.827 308.539ZM234.396 317.202L234.898 318.066L234.905 318.063L234.911 318.059L234.396 317.202ZM209.91 317.25L209.399 318.109L209.407 318.114L209.91 317.25ZM201.445 308.62L200.571 309.107L200.574 309.111L201.445 308.62ZM201.398 284.662L202.271 285.15L202.274 285.145L201.398 284.662ZM209.829 276.066L210.328 276.932L210.336 276.928L209.829 276.066ZM234.315 276.018L234.819 275.154L234.814 275.151L234.315 276.018ZM242.78 284.581L243.651 284.09V284.09L242.78 284.581ZM235.543 296.541L234.543 296.543L235.543 296.541ZM231.83 287.705L231.158 288.445L231.166 288.452L231.83 287.705ZM212.294 287.743L212.962 288.488L212.969 288.481L212.976 288.475L212.294 287.743ZM212.263 305.563L211.585 306.298L211.592 306.304L212.263 305.563ZM222.104 308.844L222.102 307.844L222.104 308.844ZM231.931 305.524L232.599 306.269L232.606 306.263L232.612 306.256L231.931 305.524ZM245.839 296.521L244.839 296.523C244.848 300.717 243.883 304.555 241.951 308.056L242.827 308.539L243.703 309.022C245.805 305.211 246.848 301.037 246.839 296.519L245.839 296.521ZM242.827 308.539L241.954 308.051C240.024 311.508 237.338 314.269 233.881 316.344L234.396 317.202L234.911 318.059C238.662 315.808 241.597 312.794 243.7 309.027L242.827 308.539ZM234.396 317.202L233.894 316.337C230.409 318.361 226.494 319.385 222.124 319.394L222.126 320.394L222.128 321.394C226.823 321.384 231.087 320.28 234.898 318.066L234.396 317.202ZM222.126 320.394L222.124 319.394C217.754 319.402 213.86 318.394 210.414 316.386L209.91 317.25L209.407 318.114C213.185 320.315 217.434 321.403 222.128 321.394L222.126 320.394ZM209.91 317.25L210.421 316.39C206.957 314.329 204.26 311.579 202.316 308.129L201.445 308.62L200.574 309.111C202.692 312.87 205.639 315.872 209.399 318.109L209.91 317.25ZM201.445 308.62L202.319 308.134C200.374 304.641 199.394 300.806 199.386 296.612L198.386 296.614L197.386 296.616C197.394 301.134 198.454 305.304 200.571 309.107L201.445 308.62ZM198.386 296.614L199.386 296.612C199.377 292.418 200.342 288.604 202.271 285.15L201.398 284.662L200.525 284.175C198.42 287.944 197.377 292.098 197.386 296.616L198.386 296.614ZM201.398 284.662L202.274 285.145C204.203 281.649 206.883 278.916 210.328 276.932L209.829 276.066L209.33 275.199C205.567 277.366 202.627 280.364 200.522 284.179L201.398 284.662ZM209.829 276.066L210.336 276.928C213.774 274.906 217.665 273.882 222.035 273.874L222.033 272.874L222.031 271.874C217.337 271.883 213.092 272.987 209.322 275.204L209.829 276.066ZM222.033 272.874L222.035 273.874C226.405 273.865 230.324 274.874 233.816 276.884L234.315 276.018L234.814 275.151C230.994 272.952 226.725 271.865 222.031 271.874L222.033 272.874ZM234.315 276.018L233.812 276.882C237.272 278.898 239.966 281.625 241.909 285.072L242.78 284.581L243.651 284.09C241.532 280.33 238.583 277.347 234.819 275.154L234.315 276.018ZM242.78 284.581L241.909 285.072C243.851 288.519 244.831 292.329 244.839 296.523L245.839 296.521L246.839 296.519C246.831 292.001 245.771 287.851 243.651 284.09L242.78 284.581ZM235.543 296.541L236.543 296.539C236.536 292.596 235.203 289.366 232.495 286.957L231.83 287.705L231.166 288.452C233.394 290.434 234.537 293.094 234.543 296.543L235.543 296.541ZM231.83 287.705L232.502 286.964C229.811 284.523 226.294 283.349 222.054 283.358L222.056 284.358L222.057 285.358C225.913 285.35 228.912 286.408 231.158 288.445L231.83 287.705ZM222.056 284.358L222.054 283.358C217.773 283.366 214.255 284.552 211.613 287.011L212.294 287.743L212.976 288.475C215.165 286.437 218.154 285.365 222.057 285.358L222.056 284.358ZM212.294 287.743L211.627 286.998C208.928 289.417 207.608 292.653 207.616 296.596L208.616 296.594L209.616 296.592C209.609 293.143 210.741 290.478 212.962 288.488L212.294 287.743ZM208.616 296.594L207.616 296.596C207.623 300.574 208.928 303.844 211.585 306.298L212.263 305.563L212.942 304.828C210.75 302.804 209.622 300.095 209.616 296.592L208.616 296.594ZM212.263 305.563L211.592 306.304C214.246 308.707 217.789 309.852 222.106 309.844L222.104 308.844L222.102 307.844C218.146 307.852 215.129 306.809 212.934 304.822L212.263 305.563ZM222.104 308.844L222.106 309.844C226.382 309.835 229.915 308.675 232.599 306.269L231.931 305.524L231.264 304.78C229.028 306.784 226.009 307.836 222.102 307.844L222.104 308.844ZM231.931 305.524L232.612 306.256C235.26 303.792 236.551 300.517 236.543 296.539L235.543 296.541L234.543 296.543C234.55 300.046 233.434 302.76 231.25 304.792L231.931 305.524ZM220.751 230.554L220.58 231.54L220.751 230.554ZM227.719 233.636L228.35 232.86L228.343 232.855L227.719 233.636ZM232.019 240.141L231.07 240.455L231.07 240.455L232.019 240.141ZM232.414 249.855L231.429 249.684L232.414 249.855ZM231.221 256.748L230.235 256.578L230.065 257.563L231.05 257.733L231.221 256.748ZM247.609 259.585L248.594 259.756L248.765 258.77L247.779 258.6L247.609 259.585ZM245.684 270.706L245.513 271.691L246.499 271.862L246.669 270.876L245.684 270.706ZM200.031 262.803L199.045 262.632L198.875 263.618L199.86 263.788L200.031 262.803ZM203.149 244.789L202.164 244.618L203.149 244.789ZM206.634 235.881L205.829 235.287V235.287L206.634 235.881ZM223.423 249.169L224.408 249.34L223.423 249.169ZM211.977 247.188L212.963 247.358L211.977 247.188ZM210.93 253.236L209.945 253.065L209.774 254.051L210.76 254.221L210.93 253.236ZM222.376 255.217L222.206 256.202L223.191 256.373L223.361 255.388L222.376 255.217ZM220.751 230.554L220.58 231.54C223.068 231.97 225.233 232.931 227.096 234.418L227.719 233.636L228.343 232.855C226.204 231.148 223.724 230.054 220.922 229.569L220.751 230.554ZM227.719 233.636L227.089 234.413C228.877 235.864 230.212 237.862 231.07 240.455L232.019 240.141L232.968 239.827C232.009 236.926 230.477 234.586 228.35 232.86L227.719 233.636ZM232.019 240.141L231.07 240.455C231.913 243.005 232.054 246.069 231.429 249.684L232.414 249.855L233.399 250.025C234.064 246.183 233.942 242.771 232.968 239.827L232.019 240.141ZM232.414 249.855L231.429 249.684L230.235 256.578L231.221 256.748L232.206 256.919L233.399 250.025L232.414 249.855ZM231.221 256.748L231.05 257.733L247.438 260.57L247.609 259.585L247.779 258.6L231.391 255.763L231.221 256.748ZM247.609 259.585L246.624 259.414L244.699 270.535L245.684 270.706L246.669 270.876L248.594 259.756L247.609 259.585ZM245.684 270.706L245.854 269.72L200.201 261.818L200.031 262.803L199.86 263.788L245.513 271.691L245.684 270.706ZM200.031 262.803L201.016 262.973L204.134 244.959L203.149 244.789L202.164 244.618L199.045 262.632L200.031 262.803ZM203.149 244.789L204.134 244.959C204.746 241.427 205.861 238.614 207.439 236.474L206.634 235.881L205.829 235.287C204.021 237.741 202.813 240.867 202.164 244.618L203.149 244.789ZM206.634 235.881L207.439 236.474C209.027 234.319 210.932 232.865 213.154 232.064L212.816 231.123L212.477 230.182C209.842 231.131 207.626 232.848 205.829 235.287L206.634 235.881ZM212.816 231.123L213.154 232.064C215.401 231.255 217.868 231.07 220.58 231.54L220.751 230.554L220.922 229.569C217.911 229.048 215.088 229.242 212.477 230.182L212.816 231.123ZM223.423 249.169L224.408 249.34C224.8 247.08 224.595 245.114 223.579 243.604L222.749 244.163L221.92 244.721C222.537 245.638 222.782 247.009 222.438 248.998L223.423 249.169ZM222.749 244.163L223.579 243.604C222.571 242.109 220.977 241.234 218.963 240.885L218.792 241.87L218.622 242.856C220.249 243.137 221.293 243.79 221.92 244.721L222.749 244.163ZM218.792 241.87L218.963 240.885C216.948 240.536 215.153 240.824 213.701 241.894L214.295 242.699L214.888 243.504C215.792 242.838 216.994 242.574 218.622 242.856L218.792 241.87ZM214.295 242.699L213.701 241.894C212.236 242.974 211.383 244.758 210.992 247.017L211.977 247.188L212.963 247.358C213.307 245.369 213.999 244.16 214.888 243.504L214.295 242.699ZM211.977 247.188L210.992 247.017L209.945 253.065L210.93 253.236L211.916 253.406L212.963 247.358L211.977 247.188ZM210.93 253.236L210.76 254.221L222.206 256.202L222.376 255.217L222.547 254.232L211.101 252.25L210.93 253.236ZM222.376 255.217L223.361 255.388L224.408 249.34L223.423 249.169L222.438 248.998L221.391 255.047L222.376 255.217ZM253.286 224.069L253.941 224.825L253.945 224.822L253.286 224.069ZM242.41 229.344L242.588 230.328L242.595 230.327L242.602 230.325L242.41 229.344ZM219.37 221.053L218.597 221.687L218.602 221.694L219.37 221.053ZM214.349 210.057L213.361 210.217L213.362 210.222L214.349 210.057ZM222.461 187.514L223.116 188.27L223.12 188.267L222.461 187.514ZM233.315 182.302L233.489 183.286L233.498 183.285L233.315 182.302ZM256.355 190.593L257.122 189.952L257.119 189.948L256.355 190.593ZM261.398 201.526L262.385 201.361V201.361L261.398 201.526ZM250.039 200.735L249.155 201.203L249.16 201.212L250.039 200.735ZM231.657 194.12L232.031 195.048L232.04 195.044L232.049 195.041L231.657 194.12ZM225.185 201.191L226.126 201.529L225.185 201.191ZM225.561 210.865L224.673 211.325L224.678 211.334L225.561 210.865ZM244.067 217.525L244.442 218.453L244.45 218.449L244.459 218.445L244.067 217.525ZM260.21 213.795L259.269 213.456C257.849 217.403 255.635 220.683 252.627 223.317L253.286 224.069L253.945 224.822C257.219 221.954 259.621 218.385 261.151 214.133L260.21 213.795ZM253.286 224.069L252.631 223.314C249.639 225.907 246.174 227.589 242.218 228.363L242.41 229.344L242.602 230.325C246.895 229.485 250.681 227.651 253.941 224.825L253.286 224.069ZM242.41 229.344L242.232 228.36C238.266 229.077 234.236 228.707 230.125 227.227L229.786 228.168L229.447 229.109C233.864 230.699 238.25 231.112 242.588 230.328L242.41 229.344ZM229.786 228.168L230.125 227.227C226.013 225.748 222.694 223.473 220.138 220.412L219.37 221.053L218.602 221.694C221.405 225.05 225.031 227.52 229.447 229.109L229.786 228.168ZM219.37 221.053L220.143 220.419C217.587 217.301 215.988 213.797 215.335 209.892L214.349 210.057L213.362 210.222C214.074 214.477 215.823 218.304 218.597 221.687L219.37 221.053ZM214.349 210.057L215.336 209.897C214.696 205.95 215.08 202.011 216.5 198.065L215.559 197.727L214.618 197.388C213.089 201.639 212.665 205.921 213.362 210.217L214.349 210.057ZM215.559 197.727L216.5 198.065C217.92 194.119 220.126 190.861 223.116 188.27L222.461 187.514L221.806 186.759C218.543 189.586 216.148 193.137 214.618 197.388L215.559 197.727ZM222.461 187.514L223.12 188.267C226.124 185.635 229.575 183.979 233.489 183.286L233.315 182.302L233.141 181.317C228.865 182.073 225.08 183.891 221.802 186.762L222.461 187.514ZM233.315 182.302L233.498 183.285C237.419 182.554 241.426 182.916 245.538 184.396L245.877 183.455L246.215 182.514C241.798 180.925 237.431 180.518 233.132 181.319L233.315 182.302ZM245.877 183.455L245.538 184.396C249.65 185.876 252.991 188.158 255.591 191.238L256.355 190.593L257.119 189.948C254.276 186.58 250.632 184.104 246.215 182.514L245.877 183.455ZM256.355 190.593L255.587 191.234C258.154 194.308 259.759 197.789 260.412 201.692L261.398 201.526L262.385 201.361C261.672 197.104 259.915 193.296 257.122 189.952L256.355 190.593ZM261.398 201.526L260.412 201.692C261.065 205.594 260.689 209.51 259.269 213.456L260.21 213.795L261.151 214.133C262.681 209.882 263.097 205.62 262.385 201.361L261.398 201.526ZM250.522 210.309L251.463 210.647C252.798 206.937 252.645 203.445 250.919 200.259L250.039 200.735L249.16 201.212C250.581 203.834 250.749 206.725 249.581 209.97L250.522 210.309ZM250.039 200.735L250.923 200.268C249.224 197.057 246.317 194.756 242.327 193.32L241.988 194.261L241.649 195.202C245.277 196.507 247.737 198.523 249.155 201.203L250.039 200.735ZM241.988 194.261L242.327 193.32C238.299 191.87 234.587 191.787 231.266 193.2L231.657 194.12L232.049 195.041C234.801 193.87 237.977 193.88 241.649 195.202L241.988 194.261ZM231.657 194.12L231.283 193.193C227.923 194.549 225.579 197.142 224.244 200.852L225.185 201.191L226.126 201.529C227.294 198.284 229.265 196.164 232.031 195.048L231.657 194.12ZM225.185 201.191L224.244 200.852C222.897 204.594 223.01 208.113 224.673 211.325L225.561 210.865L226.449 210.406C225.078 207.756 224.94 204.825 226.126 201.529L225.185 201.191ZM225.561 210.865L224.678 211.334C226.355 214.497 229.297 216.78 233.358 218.241L233.697 217.3L234.036 216.359C230.314 215.02 227.832 213.013 226.445 210.397L225.561 210.865ZM233.697 217.3L233.358 218.241C237.382 219.689 241.099 219.801 244.442 218.453L244.067 217.525L243.693 216.598C240.909 217.721 237.712 217.683 234.036 216.359L233.697 217.3ZM244.067 217.525L244.459 218.445C247.787 217.029 250.116 214.39 251.463 210.647L250.522 210.309L249.581 209.97C248.395 213.266 246.421 215.437 243.676 216.605L244.067 217.525ZM271.617 182.242L272.232 183.031V183.031L271.617 182.242ZM264.167 185.434L264.281 186.428L264.294 186.426L264.167 185.434ZM256.161 183.747L255.293 183.251L254.782 184.145L255.69 184.63L256.161 183.747ZM262.121 173.319L262.526 172.404L261.701 172.039L261.253 172.822L262.121 173.319ZM266.444 173.736L266.75 174.688L266.762 174.685L266.773 174.681L266.444 173.736ZM270.546 166.959L271.536 166.82L271.534 166.807L271.532 166.793L270.546 166.959ZM268.458 164.093L268.955 163.225L268.458 164.093ZM265.405 163.716L265.668 164.681L265.682 164.677L265.695 164.673L265.405 163.716ZM262.392 165.263L262.987 166.067L262.993 166.063L262.998 166.059L262.392 165.263ZM258.602 168.57L259.285 169.301L259.292 169.294L258.602 168.57ZM246.584 175.765L246.456 174.773V174.773L246.584 175.765ZM232.995 164.958L233.985 164.818L233.984 164.81L232.995 164.958ZM235.845 152.523L234.977 152.027L235.845 152.523ZM245.178 143.642L245.553 144.569L245.561 144.566L245.178 143.642ZM256.492 144.33L257.36 144.827L257.882 143.914L256.943 143.438L256.492 144.33ZM250.433 154.931L249.989 155.827L250.833 156.246L251.301 155.427L250.433 154.931ZM246.577 154.628L246.907 155.572L246.919 155.568L246.931 155.563L246.577 154.628ZM243.499 157.354L244.367 157.85L243.499 157.354ZM242.836 160.776L243.819 160.596L243.817 160.581L243.813 160.566L242.836 160.776ZM244.906 163.404L245.403 162.535L244.906 163.404ZM248.991 163.306L248.498 162.436V162.436L248.991 163.306ZM254.616 158.918L253.952 158.17L253.942 158.179L254.616 158.918ZM260.74 154.056L261.294 154.888L261.302 154.883L260.74 154.056ZM266.658 151.814L266.798 152.804V152.804L266.658 151.814ZM278.806 158.757L277.923 159.225L277.926 159.232L277.93 159.238L278.806 158.757ZM280.394 166.354L279.395 166.298V166.298L280.394 166.354ZM277.569 175.154L276.701 174.657C275.073 177.505 273.17 179.762 271.001 181.454L271.617 182.242L272.232 183.031C274.637 181.154 276.702 178.686 278.437 175.65L277.569 175.154ZM271.617 182.242L271.001 181.454C268.845 183.137 266.528 184.124 264.04 184.443L264.167 185.434L264.294 186.426C267.165 186.058 269.814 184.917 272.232 183.031L271.617 182.242ZM264.167 185.434L264.053 184.441C261.623 184.72 259.157 184.213 256.632 182.865L256.161 183.747L255.69 184.63C258.524 186.142 261.395 186.76 264.281 186.428L264.167 185.434ZM256.161 183.747L257.029 184.244L262.99 173.815L262.121 173.319L261.253 172.822L255.293 183.251L256.161 183.747ZM262.121 173.319L261.716 174.233C263.458 175.004 265.156 175.202 266.75 174.688L266.444 173.736L266.137 172.785C265.122 173.111 263.939 173.03 262.526 172.404L262.121 173.319ZM266.444 173.736L266.773 174.681C268.313 174.143 269.522 173.026 270.423 171.45L269.555 170.953L268.686 170.457C267.972 171.708 267.106 172.446 266.114 172.792L266.444 173.736ZM269.555 170.953L270.423 171.45C271.323 169.875 271.745 168.319 271.536 166.82L270.546 166.959L269.555 167.097C269.684 168.021 269.446 169.128 268.686 170.457L269.555 170.953ZM270.546 166.959L271.532 166.793C271.27 165.234 270.372 164.035 268.955 163.225L268.458 164.093L267.962 164.961C268.913 165.505 269.407 166.216 269.559 167.124L270.546 166.959ZM268.458 164.093L268.955 163.225C267.736 162.528 266.435 162.359 265.114 162.759L265.405 163.716L265.695 164.673C266.46 164.441 267.194 164.523 267.962 164.961L268.458 164.093ZM265.405 163.716L265.142 162.752C263.977 163.069 262.859 163.65 261.786 164.468L262.392 165.263L262.998 166.059C263.901 165.37 264.791 164.92 265.668 164.681L265.405 163.716ZM262.392 165.263L261.797 164.459C260.781 165.211 259.483 166.347 257.911 167.847L258.602 168.57L259.292 169.294C260.843 167.814 262.071 166.745 262.987 166.067L262.392 165.263ZM258.602 168.57L257.918 167.84C255.653 169.959 253.681 171.583 251.997 172.728L252.56 173.555L253.122 174.382C254.921 173.159 256.976 171.46 259.285 169.301L258.602 168.57ZM252.56 173.555L251.997 172.728C250.396 173.818 248.555 174.503 246.456 174.773L246.584 175.765L246.711 176.757C249.098 176.449 251.242 175.661 253.122 174.382L252.56 173.555ZM246.584 175.765L246.456 174.773C244.483 175.027 242.32 174.533 239.933 173.169L239.437 174.037L238.941 174.905C241.597 176.423 244.198 177.081 246.711 176.757L246.584 175.765ZM239.437 174.037L239.933 173.169C236.43 171.167 234.489 168.395 233.985 164.818L232.995 164.958L232.005 165.097C232.603 169.347 234.957 172.628 238.941 174.905L239.437 174.037ZM232.995 164.958L233.984 164.81C233.436 161.15 234.306 157.231 236.713 153.019L235.845 152.523L234.977 152.027C232.406 156.525 231.376 160.896 232.006 165.106L232.995 164.958ZM235.845 152.523L236.713 153.019C239.166 148.727 242.124 145.953 245.553 144.569L245.178 143.642L244.804 142.715C240.853 144.31 237.589 147.456 234.977 152.027L235.845 152.523ZM245.178 143.642L245.561 144.566C248.913 143.178 252.379 143.368 256.04 145.223L256.492 144.33L256.943 143.438C252.823 141.351 248.746 141.083 244.796 142.718L245.178 143.642ZM256.492 144.33L255.623 143.834L249.565 154.435L250.433 154.931L251.301 155.427L257.36 144.827L256.492 144.33ZM250.433 154.931L250.877 154.035C249.325 153.265 247.75 153.116 246.224 153.692L246.577 154.628L246.931 155.563C247.861 155.212 248.856 155.265 249.989 155.827L250.433 154.931ZM246.577 154.628L246.248 153.684C244.714 154.219 243.514 155.313 242.631 156.857L243.499 157.354L244.367 157.85C245.056 156.644 245.908 155.921 246.907 155.572L246.577 154.628ZM243.499 157.354L242.631 156.857C241.859 158.207 241.561 159.598 241.858 160.985L242.836 160.776L243.813 160.566C243.641 159.759 243.785 158.869 244.367 157.85L243.499 157.354ZM242.836 160.776L241.852 160.955C242.114 162.391 243.039 163.488 244.41 164.272L244.906 163.404L245.403 162.535C244.405 161.965 243.95 161.311 243.819 160.596L242.836 160.776ZM244.906 163.404L244.41 164.272C246.049 165.208 247.788 165.137 249.485 164.176L248.991 163.306L248.498 162.436C247.346 163.089 246.362 163.083 245.403 162.535L244.906 163.404ZM248.991 163.306L249.485 164.176C251.008 163.312 252.949 161.788 255.289 159.658L254.616 158.918L253.942 158.179C251.632 160.283 249.823 161.684 248.498 162.436L248.991 163.306ZM254.616 158.918L255.279 159.666C257.624 157.587 259.627 155.999 261.294 154.888L260.74 154.056L260.185 153.224C258.413 154.405 256.334 156.058 253.952 158.17L254.616 158.918ZM260.74 154.056L261.302 154.883C262.909 153.79 264.736 153.095 266.798 152.804L266.658 151.814L266.519 150.823C264.171 151.154 262.052 151.954 260.177 153.229L260.74 154.056ZM266.658 151.814L266.798 152.804C268.734 152.531 270.817 152.986 273.079 154.279L273.576 153.411L274.072 152.542C271.521 151.084 268.992 150.475 266.519 150.823L266.658 151.814ZM273.576 153.411L273.079 154.279C275.213 155.498 276.82 157.144 277.923 159.225L278.806 158.757L279.69 158.288C278.403 155.861 276.522 153.943 274.072 152.542L273.576 153.411ZM278.806 158.757L277.93 159.238C279.045 161.269 279.545 163.611 279.395 166.298L280.394 166.354L281.392 166.409C281.56 163.398 281.001 160.676 279.683 158.275L278.806 158.757ZM280.394 166.354L279.395 166.298C279.247 168.962 278.365 171.745 276.701 174.657L277.569 175.154L278.437 175.65C280.222 172.526 281.223 169.443 281.392 166.409L280.394 166.354ZM257.253 120.222L257.845 119.416L257.039 118.824L256.447 119.63L257.253 120.222ZM294.603 147.638L295.41 148.229L296.001 147.423L295.195 146.832L294.603 147.638ZM287.925 156.736L287.334 157.542L288.14 158.134L288.731 157.328L287.925 156.736ZM250.575 129.32L249.769 128.729L249.177 129.535L249.983 130.126L250.575 129.32ZM257.253 120.222L256.661 121.028L294.012 148.444L294.603 147.638L295.195 146.832L257.845 119.416L257.253 120.222ZM294.603 147.638L293.797 147.046L287.119 156.144L287.925 156.736L288.731 157.328L295.41 148.229L294.603 147.638ZM287.925 156.736L288.517 155.93L251.167 128.514L250.575 129.32L249.983 130.126L287.334 157.542L287.925 156.736ZM250.575 129.32L251.381 129.912L258.059 120.814L257.253 120.222L256.447 119.63L249.769 128.729L250.575 129.32ZM286.603 87.4179L287.28 86.6816L286.544 86.0049L285.867 86.7412L286.603 87.4179ZM293.261 93.5364L293.997 94.2131L294.674 93.4768L293.937 92.8001L293.261 93.5364ZM284.954 102.575L284.217 101.898L283.541 102.635L284.277 103.311L284.954 102.575ZM312.41 127.808L313.146 128.485L313.823 127.749L313.086 127.072L312.41 127.808ZM304.773 136.118L304.096 136.854L304.832 137.531L305.509 136.795L304.773 136.118ZM277.317 110.885L277.993 110.148L277.257 109.472L276.581 110.208L277.317 110.885ZM269.01 119.923L268.333 120.66L269.07 121.336L269.746 120.6L269.01 119.923ZM262.352 113.805L261.616 113.128L260.94 113.864L261.676 114.541L262.352 113.805ZM286.603 87.4179L285.926 88.1542L292.584 94.2727L293.261 93.5364L293.937 92.8001L287.28 86.6816L286.603 87.4179ZM293.261 93.5364L292.524 92.8597L284.217 101.898L284.954 102.575L285.69 103.252L293.997 94.2131L293.261 93.5364ZM284.954 102.575L284.277 103.311L311.733 128.544L312.41 127.808L313.086 127.072L285.63 101.839L284.954 102.575ZM312.41 127.808L311.673 127.131L304.036 135.441L304.773 136.118L305.509 136.795L313.146 128.485L312.41 127.808ZM304.773 136.118L305.449 135.382L277.993 110.148L277.317 110.885L276.64 111.621L304.096 136.854L304.773 136.118ZM277.317 110.885L276.581 110.208L268.274 119.247L269.01 119.923L269.746 120.6L278.053 111.561L277.317 110.885ZM269.01 119.923L269.687 119.187L263.029 113.069L262.352 113.805L261.676 114.541L268.333 120.66L269.01 119.923ZM262.352 113.805L263.089 114.481L287.339 88.0946L286.603 87.4179L285.867 86.7412L261.616 113.128L262.352 113.805ZM301.009 74.4091L301.761 73.7505L301.103 72.998L300.35 73.6566L301.009 74.4091ZM331.521 109.276L332.179 110.028L332.932 109.37L332.273 108.617L331.521 109.276ZM323.027 116.708L322.275 117.367L322.933 118.119L323.686 117.461L323.027 116.708ZM292.516 81.8414L291.857 81.0889L291.105 81.7474L291.763 82.5L292.516 81.8414ZM301.009 74.4091L300.256 75.0676L330.768 109.934L331.521 109.276L332.273 108.617L301.761 73.7505L301.009 74.4091ZM331.521 109.276L330.862 108.523L322.369 115.956L323.027 116.708L323.686 117.461L332.179 110.028L331.521 109.276ZM323.027 116.708L323.78 116.05L293.268 81.1829L292.516 81.8414L291.763 82.5L322.275 117.367L323.027 116.708ZM292.516 81.8414L293.174 82.594L301.667 75.1616L301.009 74.4091L300.35 73.6566L291.857 81.0889L292.516 81.8414ZM342.38 98.5615L342.455 99.5587L342.46 99.5583L342.38 98.5615ZM330.502 96.3144L330.059 97.2106L330.065 97.2138L330.071 97.2169L330.502 96.3144ZM316.944 75.925L315.945 75.9732L315.945 75.9822L316.944 75.925ZM319.465 64.1028L318.577 63.6429L318.575 63.6475L319.465 64.1028ZM339.415 50.8366L339.49 51.8338L339.496 51.8334L339.415 50.8366ZM351.237 53.1203L350.79 54.0148L350.799 54.0188L351.237 53.1203ZM364.796 73.5097L365.794 73.4525L365.794 73.4472L364.796 73.5097ZM362.329 85.2953L363.22 85.7506V85.7506L362.329 85.2953ZM353.68 77.89L352.691 77.7387L352.69 77.7484L353.68 77.89ZM351.074 67.8923L351.906 67.3386L351.074 67.8923ZM342.862 61.6224L342.61 62.59L342.619 62.5924L342.628 62.5946L342.862 61.6224ZM327.987 71.4348L327 71.2747L326.998 71.2844L327.987 71.4348ZM330.684 81.4509L329.852 82.0046L330.684 81.4509ZM338.878 87.8123L338.625 88.78L338.634 88.7824L338.643 88.7846L338.878 87.8123ZM354.063 94.4382L353.509 93.6055C350.017 95.9279 346.284 97.2422 342.299 97.5648L342.38 98.5615L342.46 99.5583C346.798 99.2072 350.855 97.7727 354.617 95.2709L354.063 94.4382ZM342.38 98.5615L342.304 97.5644C338.356 97.8635 334.571 97.1485 330.933 95.412L330.502 96.3144L330.071 97.2169C334.02 99.1014 338.153 99.8846 342.455 99.5587L342.38 98.5615ZM330.502 96.3144L330.946 95.4182C327.334 93.6304 324.319 90.9314 321.899 87.2927L321.067 87.8465L320.234 88.4002C322.833 92.3091 326.108 95.2554 330.059 97.2106L330.502 96.3144ZM321.067 87.8465L321.899 87.2927C319.48 83.654 318.17 79.8496 317.942 75.8678L316.944 75.925L315.945 75.9822C316.195 80.3481 317.635 84.4914 320.234 88.4002L321.067 87.8465ZM316.944 75.925L317.942 75.8768C317.748 71.8501 318.553 68.0833 320.356 64.5582L319.465 64.1028L318.575 63.6475C316.61 67.4888 315.734 71.6035 315.945 75.9732L316.944 75.925ZM319.465 64.1028L320.353 64.5627C322.192 61.0124 324.848 58.0784 328.34 55.7561L327.786 54.9234L327.233 54.0907C323.471 56.5924 320.579 59.7781 318.577 63.6429L319.465 64.1028ZM327.786 54.9234L328.34 55.7561C331.833 53.4337 335.545 52.1326 339.491 51.8338L339.415 50.8366L339.339 49.8395C335.034 50.1656 330.995 51.589 327.233 54.0907L327.786 54.9234ZM339.415 50.8366L339.496 51.8334C343.476 51.5112 347.234 52.2375 350.79 54.0148L351.237 53.1203L351.684 52.2258C347.801 50.2846 343.677 49.4884 339.334 49.8399L339.415 50.8366ZM351.237 53.1203L350.799 54.0188C354.382 55.7693 357.384 58.4483 359.804 62.087L360.636 61.5333L361.469 60.9796C358.87 57.0708 355.606 54.1411 351.676 52.2217L351.237 53.1203ZM360.636 61.5333L359.804 62.087C362.223 65.7257 363.546 69.5501 363.798 73.5722L364.796 73.5097L365.794 73.4472C365.519 69.0483 364.068 64.8885 361.469 60.9796L360.636 61.5333ZM364.796 73.5097L363.798 73.5669C364.027 77.5653 363.241 81.3167 361.439 84.84L362.329 85.2953L363.22 85.7506C365.185 81.9074 366.044 77.8018 365.794 73.4525L364.796 73.5097ZM362.329 85.2953L361.439 84.84C359.638 88.3625 357.002 91.2832 353.509 93.6055L354.063 94.4382L354.617 95.2709C358.379 92.7692 361.254 89.5946 363.22 85.7506L362.329 85.2953ZM348.362 85.8648L348.916 86.6975C352.199 84.514 354.157 81.6188 354.67 78.0315L353.68 77.89L352.69 77.7484C352.268 80.7011 350.68 83.1224 347.808 85.0321L348.362 85.8648ZM353.68 77.89L354.668 78.0412C355.218 74.4503 354.255 70.87 351.906 67.3386L351.074 67.8923L350.241 68.446C352.376 71.6562 353.15 74.741 352.691 77.7387L353.68 77.89ZM351.074 67.8923L351.906 67.3386C349.536 63.774 346.605 61.4951 343.096 60.6502L342.862 61.6224L342.628 62.5946C345.536 63.2948 348.08 65.1959 350.241 68.446L351.074 67.8923ZM342.862 61.6224L343.114 60.6547C339.608 59.7403 336.181 60.4258 332.897 62.6092L333.451 63.4419L334.005 64.2746C336.877 62.3649 339.724 61.8373 342.61 62.59L342.862 61.6224ZM333.451 63.4419L332.897 62.6092C329.585 64.8116 327.579 67.7044 327 71.2747L327.987 71.4348L328.974 71.595C329.452 68.6499 331.088 66.2141 334.005 64.2746L333.451 63.4419ZM327.987 71.4348L326.998 71.2844C326.46 74.8238 327.461 78.4103 329.852 82.0046L330.684 81.4509L331.517 80.8972C329.327 77.6034 328.53 74.5126 328.975 71.5853L327.987 71.4348ZM330.684 81.4509L329.852 82.0046C332.22 85.5657 335.138 87.8706 338.625 88.78L338.878 87.8123L339.13 86.8447C336.224 86.087 333.681 84.1509 331.517 80.8972L330.684 81.4509ZM338.878 87.8123L338.643 88.7846C342.16 89.6313 345.604 88.8999 348.916 86.6975L348.362 85.8648L347.808 85.0321C344.892 86.9715 342.012 87.5386 339.112 86.8401L338.878 87.8123ZM413.396 64.2847L413.782 65.2072L414.705 64.8213L414.319 63.8988L413.396 64.2847ZM402.985 68.6401L402.428 69.4705L402.874 69.7702L403.371 69.5626L402.985 68.6401ZM374.542 49.5603L375.099 48.7299L372.335 46.8757L373.62 49.9462L374.542 49.5603ZM385.571 75.9246L385.957 76.8471L386.879 76.4612L386.493 75.5386L385.571 75.9246ZM375.159 80.2799L374.237 80.6659L374.622 81.5884L375.545 81.2025L375.159 80.2799ZM357.279 37.537L356.893 36.6145L355.971 37.0004L356.356 37.9229L357.279 37.537ZM367.691 33.1816L368.25 32.3524L367.802 32.051L367.305 32.2591L367.691 33.1816ZM396.184 52.3832L395.625 53.2124L398.396 55.0797L397.107 51.9972L396.184 52.3832ZM385.105 25.8972L384.719 24.9746L383.796 25.3605L384.182 26.2831L385.105 25.8972ZM395.516 21.5418L396.439 21.1558L396.053 20.2333L395.13 20.6192L395.516 21.5418ZM413.396 64.2847L413.01 63.3621L402.599 67.7175L402.985 68.6401L403.371 69.5626L413.782 65.2072L413.396 64.2847ZM402.985 68.6401L403.542 67.8096L375.099 48.7299L374.542 49.5603L373.985 50.3908L402.428 69.4705L402.985 68.6401ZM374.542 49.5603L373.62 49.9462L384.648 76.3105L385.571 75.9246L386.493 75.5386L375.465 49.1744L374.542 49.5603ZM385.571 75.9246L385.185 75.002L374.773 79.3574L375.159 80.2799L375.545 81.2025L385.957 76.8471L385.571 75.9246ZM375.159 80.2799L376.082 79.894L358.202 37.1511L357.279 37.537L356.356 37.9229L374.237 80.6659L375.159 80.2799ZM357.279 37.537L357.665 38.4596L368.077 34.1042L367.691 33.1816L367.305 32.2591L356.893 36.6145L357.279 37.537ZM367.691 33.1816L367.132 34.0109L395.625 53.2124L396.184 52.3832L396.743 51.5539L368.25 32.3524L367.691 33.1816ZM396.184 52.3832L397.107 51.9972L386.027 25.5112L385.105 25.8972L384.182 26.2831L395.262 52.7691L396.184 52.3832ZM385.105 25.8972L385.49 26.8197L395.902 22.4643L395.516 21.5418L395.13 20.6192L384.719 24.9746L385.105 25.8972ZM395.516 21.5418L394.594 21.9277L412.474 64.6706L413.396 64.2847L414.319 63.8988L396.439 21.1558L395.516 21.5418Z" fill="#FFC700" mask="url(#path-1-outside-1_361_228)"/>
</svg>
